# Blender 4.5.0
# www.blender.org
mtllib TrainBodies.mtl
o TrainBody
v -0.950000 1.400000 0.000000
v -1.000000 1.300000 -0.050000
v -0.950000 1.350000 0.050000
v 0.950000 1.400000 0.000000
v 0.950000 1.350000 0.050000
v 1.000000 1.300000 -0.050000
v -0.950000 1.350000 -3.000000
v -1.000000 1.350000 -2.947555
v 0.950000 1.350000 -3.000000
v 1.000000 1.350000 -2.947555
v -0.950000 0.400000 -3.000000
v -0.950000 0.350000 -2.950000
v -1.000000 0.367721 -2.946837
v 0.950000 0.350000 -2.950000
v 0.950000 0.400000 -3.000000
v 1.000000 0.367721 -2.946837
v -0.950000 1.350000 2.950000
v -1.000000 1.300000 2.950000
v -0.950000 1.300000 3.000000
v 0.950000 1.350000 2.950000
v 0.950000 1.300000 3.000000
v 1.000000 1.300000 2.950000
v -0.950000 0.350000 2.950000
v -0.950000 0.400000 3.000000
v -1.000000 0.368962 2.950000
v 0.950000 0.350000 2.950000
v 1.000000 0.368962 2.950000
v 0.950000 0.400000 3.000000
v 0.000000 2.199020 2.700000
v 0.000000 2.250000 2.650000
v -0.344415 2.181491 2.650000
v -0.324906 2.134392 2.700000
v -0.636396 1.986396 2.650000
v -0.600348 1.950348 2.700000
v -0.831492 1.694415 2.650000
v -0.784393 1.674906 2.700000
v -0.849020 1.350000 2.700000
v -0.900000 1.350000 2.650000
v 0.900000 1.350000 2.650000
v 0.849020 1.350000 2.700000
v 0.831492 1.694415 2.650000
v 0.784393 1.674906 2.700000
v 0.636396 1.986396 2.650000
v 0.600348 1.950348 2.700000
v 0.344415 2.181491 2.650000
v 0.324906 2.134392 2.700000
v 0.000000 2.250000 0.050000
v 0.000000 2.199020 0.000000
v -0.324906 2.134392 0.000000
v -0.344415 2.181491 0.050000
v -0.600348 1.950348 0.000000
v -0.636396 1.986396 0.050000
v -0.784393 1.674906 0.000000
v -0.831492 1.694415 0.050000
v -0.900000 1.350000 0.050000
v -0.849020 1.350000 0.000000
v 0.849020 1.350000 0.000000
v 0.900000 1.350000 0.050000
v 0.784393 1.674906 0.000000
v 0.831492 1.694415 0.050000
v 0.600348 1.950348 0.000000
v 0.636396 1.986396 0.050000
v 0.324906 2.134392 0.000000
v 0.344415 2.181491 0.050000
v -0.382683 2.903880 -0.050000
v -0.363174 2.856781 0.000000
v 0.000000 2.929020 0.000000
v 0.000000 2.980000 -0.050000
v -0.707107 2.687107 -0.050000
v -0.671059 2.651059 0.000000
v -0.923879 2.362683 -0.050000
v -0.876781 2.343174 0.000000
v -0.950000 1.975075 0.000000
v -1.000000 1.980000 -0.050000
v 0.923879 2.362683 -0.050000
v 0.876781 2.343174 0.000000
v 0.950000 1.975075 0.000000
v 1.000000 1.980000 -0.050000
v 0.707107 2.687107 -0.050000
v 0.671059 2.651059 0.000000
v 0.382683 2.903880 -0.050000
v 0.363174 2.856781 0.000000
v -0.363174 2.856781 -3.000000
v -0.382683 2.903880 -2.948828
v 0.000000 2.980000 -2.948873
v 0.000000 2.929020 -3.000000
v -0.671059 2.651059 -3.000000
v -0.707107 2.687107 -2.948689
v -0.876781 2.343174 -3.000000
v -0.923879 2.362683 -2.948445
v -0.950000 1.975075 -3.000000
v -1.000000 1.980000 -2.948077
v 0.876781 2.343174 -3.000000
v 0.923879 2.362683 -2.948445
v 0.950000 1.975075 -3.000000
v 1.000000 1.980000 -2.948077
v 0.671059 2.651059 -3.000000
v 0.707107 2.687107 -2.948689
v 0.363174 2.856781 -3.000000
v 0.382683 2.903880 -2.948828
v -0.000000 1.400000 1.700000
v -0.000000 1.350000 1.754120
v -0.173864 1.350000 1.826136
v -0.212132 1.400000 1.787868
v -0.245880 1.350000 2.000000
v -0.300000 1.400000 2.000000
v -0.173864 1.350000 2.173864
v -0.212132 1.400000 2.212132
v -0.000000 1.350000 2.245880
v -0.000000 1.400000 2.300000
v 0.173864 1.350000 2.173863
v 0.212132 1.400000 2.212132
v 0.245880 1.350000 2.000000
v 0.300000 1.400000 2.000000
v 0.173864 1.350000 1.826136
v 0.212132 1.400000 1.787868
v -0.000000 3.150000 1.754120
v -0.000000 3.100000 1.700000
v -0.212132 3.100000 1.787868
v -0.173864 3.150000 1.826136
v -0.300000 3.100000 2.000000
v -0.245880 3.150000 2.000000
v -0.212132 3.100000 2.212132
v -0.173864 3.150000 2.173863
v -0.000000 3.100000 2.300000
v -0.000000 3.150000 2.245880
v 0.212132 3.100000 2.212132
v 0.173864 3.150000 2.173864
v 0.300000 3.100000 2.000000
v 0.245880 3.150000 2.000000
v 0.212132 3.100000 1.787868
v 0.173864 3.150000 1.826136
vn -0.0000 -0.0001 1.0000
vn -1.0000 -0.0000 -0.0000
vn -0.0000 1.0000 -0.0000
vn -0.0000 -0.0000 1.0000
vn -0.0000 1.0000 -0.0001
vn 1.0000 -0.0000 -0.0000
vn -0.0000 -0.0000 -1.0000
vn -0.0000 -1.0000 -0.0000
vn -0.0001 -0.0000 -1.0000
vn -0.0000 0.0001 1.0000
vn -0.0000 0.9998 -0.0187
vn -0.3826 0.9237 -0.0187
vn -0.7070 0.7070 -0.0187
vn -0.9237 0.3826 -0.0187
vn -0.9808 0.1951 -0.0000
vn -0.0001 -0.0000 1.0000
vn 0.9808 0.1951 -0.0000
vn 0.9237 0.3826 -0.0187
vn 0.7070 0.7070 -0.0187
vn 0.3826 0.9237 -0.0187
vn -0.3826 0.9237 0.0187
vn -0.0000 0.9998 0.0187
vn -0.0000 -0.0001 -1.0000
vn 0.0001 -0.0000 -1.0000
vn -0.7070 0.7070 0.0187
vn -0.9237 0.3826 0.0187
vn 0.9237 0.3826 0.0187
vn 0.7070 0.7070 0.0187
vn 0.3826 0.9237 0.0187
vn -0.9952 0.0980 -0.0048
vn 0.9952 0.0980 -0.0048
vn -0.3826 0.9237 0.0191
vn -0.0000 0.9998 0.0191
vn -0.7070 0.7070 0.0192
vn -0.9237 0.3826 0.0193
vn -0.9952 0.0980 0.0050
vn 0.0001 0.0001 -1.0000
vn 0.9237 0.3826 0.0193
vn 0.9952 0.0980 0.0050
vn 0.7070 0.7070 0.0192
vn 0.3827 0.9237 0.0191
vn -0.7054 0.0682 -0.7055
vn -0.0000 0.0682 -0.9977
vn -0.0000 -1.0000 0.0001
vn -0.9977 0.0682 -0.0000
vn 0.0001 -1.0000 -0.0000
vn -0.7055 0.0682 0.7054
vn -0.0000 0.0682 0.9977
vn -0.0000 -1.0000 -0.0001
vn 0.7054 0.0682 0.7055
vn 0.9977 0.0682 -0.0000
vn -0.0001 -1.0000 -0.0000
vn 0.7055 0.0682 -0.7054
vn 0.0001 1.0000 -0.0000
vn -0.0000 1.0000 0.0001
vn -0.0000 -0.0682 -0.9977
vn -0.7055 -0.0682 -0.7054
vn -0.9977 -0.0682 -0.0000
vn -0.7054 -0.0682 0.7055
vn -0.0000 -0.0682 0.9977
vn -0.0001 1.0000 -0.0000
vn 0.7055 -0.0682 0.7054
vn 0.9977 -0.0682 -0.0000
vn 0.7054 -0.0682 -0.7055
vn -0.9952 0.0980 -0.0000
vn -0.9952 0.0981 -0.0000
vn 0.9952 0.0981 -0.0000
vn 0.9952 0.0980 -0.0000
vn 0.3827 0.9239 -0.0000
vn -0.3827 0.9239 -0.0000
vn -0.7071 0.7071 -0.0000
vn -0.9239 0.3827 -0.0000
vn 0.9239 0.3827 -0.0000
vn 0.7071 0.7071 -0.0000
vn -0.7071 0.7072 -0.0000
vn -0.9238 0.3828 -0.0000
vn 0.9238 0.3828 -0.0000
vn 0.7071 0.7072 -0.0000
vn 0.7071 -0.0000 -0.7071
vn -0.7071 -0.0000 -0.7071
vn -0.7071 -0.0000 0.7071
vn 0.7071 -0.0000 0.7071
vt 0.768728 0.184551
vt 0.774541 0.190391
vt 0.768728 0.190391
vt 0.547839 0.184560
vt 0.544632 0.190391
vt 0.541468 0.196231
vt 0.502182 0.700826
vt 0.502182 0.694985
vt 0.508022 0.694616
vt 0.280254 0.694985
vt 0.280254 0.700826
vt 0.274413 0.694616
vt 0.802741 0.190391
vt 0.808554 0.196231
vt 0.802741 0.196231
vt 0.578005 0.190391
vt 0.581861 0.196231
vt 0.575482 0.196231
vt 0.502182 0.005840
vt 0.502182 0.000000
vt 0.508022 0.005840
vt 0.280254 0.005840
vt 0.274413 0.005840
vt 0.280254 0.000000
vt 0.508617 0.190391
vt 0.508625 0.305125
vt 0.508022 0.301355
vt 0.508022 0.190391
vt 0.575481 0.304980
vt 0.581861 0.301355
vt 0.808554 0.304980
vt 0.802741 0.301355
vt 0.508022 0.657608
vt 0.508022 0.313035
vt 0.513862 0.313035
vt 0.513862 0.651768
vt 0.775822 0.657608
vt 0.815964 0.657608
vt 0.815964 0.663448
vt 0.775735 0.663448
vt 0.742596 0.657608
vt 0.741630 0.663448
vt 0.959027 0.972601
vt 0.922161 0.973348
vt 0.921088 0.967537
vt 0.958983 0.966757
vt 0.998838 0.972590
vt 1.000000 0.966757
vt 0.912876 0.657608
vt 0.920861 0.657608
vt 0.921088 0.663448
vt 0.913086 0.663448
vt 0.890138 0.657608
vt 0.890298 0.663448
vt 0.856107 0.657608
vt 0.856193 0.663448
vt 0.775735 0.967139
vt 0.815964 0.967139
vt 0.815964 0.972979
vt 0.775822 0.972979
vt 0.741630 0.967139
vt 0.742596 0.972979
vt 0.958983 0.663441
vt 0.921088 0.664221
vt 0.922161 0.658366
vt 0.959027 0.657619
vt 1.000000 0.663441
vt 0.998838 0.657608
vt 0.913086 0.967139
vt 0.921088 0.967139
vt 0.920861 0.972979
vt 0.912876 0.972979
vt 0.890298 0.967139
vt 0.890138 0.972979
vt 0.856193 0.967139
vt 0.856107 0.972979
vt 0.700508 0.014393
vt 0.658288 0.005955
vt 0.658288 -0.000000
vt 0.702776 0.008891
vt 0.736300 0.038422
vt 0.740491 0.034211
vt 0.760216 0.074384
vt 0.765691 0.072105
vt 0.768728 0.117379
vt 0.774540 0.116804
vt 0.556360 0.074384
vt 0.547848 0.117379
vt 0.541476 0.116804
vt 0.550884 0.072105
vt 0.580275 0.038422
vt 0.576085 0.034211
vt 0.616068 0.014393
vt 0.613800 0.008891
vt 0.580127 0.666499
vt 0.624826 0.657608
vt 0.624826 0.663563
vt 0.582406 0.672000
vt 0.542233 0.691819
vt 0.546444 0.696030
vt 0.516913 0.729713
vt 0.522414 0.731992
vt 0.508022 0.774412
vt 0.513862 0.774987
vt 0.732739 0.729713
vt 0.741630 0.774412
vt 0.735790 0.774987
vt 0.727238 0.731992
vt 0.707419 0.691819
vt 0.703209 0.696030
vt 0.669525 0.666499
vt 0.667246 0.672000
vt 0.513862 0.847999
vt 0.508022 0.847999
vt 0.508610 0.116804
vt 0.508022 0.117379
vt 0.508022 0.962733
vt 0.513862 0.958963
vt 0.000000 0.906213
vt 0.024778 0.906213
vt 0.024778 0.912053
vt 0.002235 0.912053
vt 0.085085 0.904537
vt 0.109311 0.902296
vt 0.107126 0.908226
vt 0.085038 0.910085
vt 0.059819 0.902784
vt 0.062098 0.908671
vt 0.846831 0.204407
vt 0.870496 0.204407
vt 0.868361 0.210248
vt 0.846741 0.210248
vt 0.821174 0.204407
vt 0.821762 0.210248
vt 0.808554 0.204407
vt 0.809692 0.210248
vt 0.049556 0.906213
vt 0.059819 0.906213
vt 0.058893 0.912053
vt 0.048901 0.912053
vt 0.115152 0.723189
vt 0.115152 0.745170
vt 0.109312 0.747589
vt 0.109312 0.720769
vt 0.130695 0.707646
vt 0.128276 0.701805
vt 0.152676 0.707646
vt 0.155095 0.701805
vt 0.168219 0.723189
vt 0.174059 0.720769
vt 0.168219 0.745170
vt 0.174059 0.747589
vt 0.152676 0.760713
vt 0.155095 0.766553
vt 0.130695 0.760713
vt 0.128276 0.766553
vt 0.165581 0.344917
vt 0.159853 0.006831
vt 0.272383 0.008026
vt 0.272241 0.695951
vt 0.165581 0.694897
vt 0.735790 0.651768
vt 0.735790 0.313035
vt 0.087680 0.344147
vt 0.087680 0.006057
vt 0.735790 0.847999
vt 0.735790 0.958963
vt 0.471158 0.843224
vt 0.449660 0.875245
vt 0.417488 0.896641
vt 0.379537 0.904154
vt 0.379537 0.706752
vt 0.417488 0.714265
vt 0.449660 0.735661
vt 0.471158 0.767682
vt 0.478706 0.805453
vt 0.366034 0.767999
vt 0.373583 0.805949
vt 0.366034 0.843900
vt 0.344537 0.876073
vt 0.312364 0.897570
vt 0.274413 0.905119
vt 0.274413 0.706780
vt 0.312364 0.714329
vt 0.344537 0.735826
vt 0.741630 0.313035
vt 0.779524 0.313035
vt 0.779524 0.651631
vt 0.741630 0.651615
vt 0.824224 0.313035
vt 0.824223 0.651636
vt 0.868922 0.313035
vt 0.868922 0.651631
vt 0.042105 0.344147
vt 0.000000 0.345014
vt 0.000000 0.006852
vt 0.042105 0.006014
vt 0.906816 0.313035
vt 0.932137 0.313035
vt 0.932137 0.651586
vt 0.906816 0.651615
vt 0.941028 0.313035
vt 0.941028 0.651543
vt 0.195443 0.760713
vt 0.179900 0.745170
vt 0.179900 0.723189
vt 0.195443 0.707645
vt 0.217424 0.707646
vt 0.232967 0.723189
vt 0.232967 0.745170
vt 0.217424 0.760713
vt 0.024778 0.707646
vt 0.049556 0.707646
vt 0.000000 0.707645
vt 0.085085 0.709775
vt 0.109311 0.707534
vt 0.059819 0.708022
vt 0.846831 0.005840
vt 0.870496 0.005840
vt 0.821174 0.005840
vt 0.808554 0.005840
vt 0.059819 0.707646
s 1
usemtl Body
f 1/1/1 2/2/2 3/3/3
f 4/4/4 5/5/5 6/6/6
f 11/7/7 12/8/8 13/9/2
f 14/10/8 15/11/9 16/12/6
f 17/13/3 18/14/2 19/15/4
f 20/16/3 21/17/4 22/18/6
f 23/19/8 24/20/4 25/21/2
f 26/22/8 27/23/6 28/24/10
f 3/3/3 5/5/5 4/4/4 1/1/1
f 11/7/7 15/11/9 14/10/8 12/8/8
f 10/25/6 16/26/6 15/27/9 9/28/9
f 19/15/4 21/17/4 20/16/3 17/13/3
f 23/19/8 26/22/8 28/24/10 24/20/4
f 27/29/6 22/18/6 21/17/4 28/30/10
f 18/14/2 25/31/2 24/32/4 19/15/4
f 5/5/5 20/16/3 22/18/6 6/6/6
f 26/22/8 14/10/8 16/12/6 27/23/6
f 25/21/2 13/9/2 12/8/8 23/19/8
f 2/33/2 18/34/2 17/35/3 3/36/3
f 32/37/1 29/38/4 30/39/11 31/40/12
f 34/41/1 32/37/1 31/40/12 33/42/13
f 36/43/1 34/44/1 33/45/13 35/46/14
f 37/47/4 36/43/1 35/46/14 38/48/15
f 42/49/16 40/50/4 39/51/17 41/52/18
f 44/53/16 42/49/16 41/52/18 43/54/19
f 46/55/16 44/53/16 43/54/19 45/56/20
f 29/38/4 46/55/16 45/56/20 30/39/11
f 50/57/21 47/58/22 48/59/23 49/60/24
f 52/61/25 50/57/21 49/60/24 51/62/24
f 54/63/26 52/64/25 51/65/24 53/66/24
f 55/67/15 54/63/26 53/66/24 56/68/7
f 60/69/27 58/70/17 57/71/7 59/72/23
f 62/73/28 60/69/27 59/72/23 61/74/23
f 64/75/29 62/73/28 61/74/23 63/76/23
f 47/58/22 64/75/29 63/76/23 48/59/23
f 66/77/1 67/78/1 68/79/11 65/80/12
f 70/81/1 66/77/1 65/80/12 69/82/13
f 72/83/1 70/81/1 69/82/13 71/84/14
f 73/85/4 72/83/1 71/84/14 74/86/30
f 76/87/16 77/88/4 78/89/31 75/90/18
f 80/91/16 76/87/16 75/90/18 79/92/19
f 82/93/16 80/91/16 79/92/19 81/94/20
f 67/78/1 82/93/16 81/94/20 68/79/11
f 84/95/32 85/96/33 86/97/23 83/98/7
f 88/99/34 84/95/32 83/98/7 87/100/7
f 90/101/35 88/99/34 87/100/7 89/102/7
f 92/103/36 90/101/35 89/102/7 91/104/37
f 94/105/38 96/106/39 95/107/9 93/108/7
f 98/109/40 94/105/38 93/108/7 97/110/7
f 100/111/41 98/109/40 97/110/7 99/112/7
f 85/96/33 100/111/41 99/112/7 86/97/23
f 1/1/1 73/85/4 74/86/30 2/2/2
f 91/104/37 7/113/24 8/114/2 92/103/36
f 6/6/6 78/89/31 77/88/4 4/4/4
f 96/115/39 10/25/6 9/28/9 95/116/9
f 13/117/2 8/114/2 7/113/24 11/118/7
f 104/119/42 101/120/43 102/121/44 103/122/44
f 106/123/45 104/124/42 103/125/44 105/126/46
f 108/127/47 106/123/45 105/126/46 107/128/46
f 110/129/48 108/130/47 107/131/46 109/132/49
f 112/133/50 110/129/48 109/132/49 111/134/49
f 114/135/51 112/133/50 111/134/49 113/136/52
f 116/137/53 114/138/51 113/139/52 115/140/52
f 101/120/43 116/137/53 115/140/52 102/121/44
f 120/141/54 117/142/55 118/143/56 119/144/57
f 122/145/54 120/141/54 119/144/57 121/146/58
f 124/147/5 122/145/54 121/146/58 123/148/59
f 126/149/5 124/147/5 123/148/59 125/150/60
f 128/151/61 126/149/5 125/150/60 127/152/62
f 130/153/61 128/151/61 127/152/62 129/154/63
f 132/155/55 130/153/61 129/154/63 131/156/64
f 117/142/55 132/155/55 131/156/64 118/143/56
f 2/157/2 8/158/2 13/159/2
f 67/78/4 66/77/4 70/81/4 72/83/4 73/85/4 1/1/4 4/4/4 77/88/4 76/87/4 80/91/4 82/93/4
f 2/157/2 13/159/2 25/160/2 18/161/2
f 5/162/3 3/36/3 17/35/3 20/163/3
f 8/158/2 2/157/2 74/164/65 92/165/66
f 6/6/6 10/25/6 96/115/67 78/89/68
f 10/25/6 6/6/6 16/26/6
f 16/26/6 6/6/6 22/18/6 27/29/6
f 7/113/7 9/166/7 15/167/7 11/118/7
f 83/98/7 86/97/7 99/112/7 97/110/7 93/108/7 95/107/7 9/166/7 7/113/7 91/104/7 89/102/7 87/100/7
f 12/8/8 14/10/8 26/22/8 23/19/8
f 21/17/4 19/15/4 24/32/4 28/30/4
f 32/168/4 34/169/4 36/170/4 37/171/4 40/172/4 42/173/4 44/174/4 46/175/4 29/176/4
f 30/39/3 45/56/69 64/75/69 47/58/3
f 31/40/70 30/39/3 47/58/3 50/57/70
f 33/42/71 31/40/70 50/57/70 52/61/71
f 35/46/72 33/45/71 52/64/71 54/63/72
f 38/48/15 35/46/72 54/63/72 55/67/15
f 41/52/73 39/51/17 58/70/17 60/69/73
f 43/54/74 41/52/73 60/69/73 62/73/74
f 45/56/69 43/54/74 62/73/74 64/75/69
f 49/177/7 48/178/7 63/179/7 61/180/7 59/181/7 57/182/7 56/183/7 53/184/7 51/185/7
f 69/186/71 65/187/70 84/188/70 88/189/75
f 65/187/70 68/190/3 85/191/3 84/188/70
f 68/190/3 81/192/69 100/193/69 85/191/3
f 71/194/72 69/195/71 88/196/75 90/197/76
f 74/164/65 71/194/72 90/197/76 92/165/66
f 79/198/74 75/199/73 94/200/77 98/201/78
f 75/199/73 78/202/68 96/203/67 94/200/77
f 81/192/69 79/198/74 98/201/78 100/193/69
f 103/204/8 102/205/8 115/206/8 113/207/8 111/208/8 109/209/8 107/210/8 105/211/8
f 101/120/7 118/212/7 131/213/79 116/137/79
f 104/119/80 119/214/80 118/212/7 101/120/7
f 106/123/2 121/215/2 119/216/80 104/124/80
f 108/127/81 123/217/81 121/215/2 106/123/2
f 110/129/4 125/218/4 123/219/81 108/130/81
f 112/133/82 127/220/82 125/218/4 110/129/4
f 114/135/6 129/221/6 127/220/82 112/133/82
f 116/137/79 131/213/79 129/222/6 114/138/6
f 120/141/3 122/145/3 124/147/3 126/149/3 128/151/3 130/153/3 132/155/3 117/142/3
o WagonBodyA
v 1.200000 2.264371 -0.393653
v 1.200000 2.264371 0.393653
v -1.200000 2.264371 -0.393653
v -1.200000 2.264371 0.393653
v 1.200000 2.764371 -0.393653
v 1.200000 2.764371 0.393653
v -1.200000 2.764371 -0.393653
v -1.200000 2.764371 0.393653
v 1.150000 2.200000 3.135000
v 1.150000 2.150000 3.085000
v 1.200000 2.200000 3.085000
v -1.150000 2.200000 3.135000
v -1.200000 2.200000 3.085000
v -1.150000 2.150000 3.085000
v -0.950000 0.400000 -3.000000
v -0.950000 0.350000 -2.950000
v -1.000000 0.400000 -2.950000
v 0.950000 0.350000 -2.950000
v 0.950000 0.400000 -3.000000
v 1.000000 0.400000 -2.950000
v 1.150000 2.200000 -3.135000
v 1.200000 2.200000 -3.085000
v 1.150000 2.150000 -3.085000
v -1.150000 2.200000 -3.135000
v -1.150000 2.150000 -3.085000
v -1.200000 2.200000 -3.085000
v -0.950000 0.350000 2.950000
v -0.950000 0.400000 3.000000
v -1.000000 0.400000 2.950000
v 0.950000 0.350000 2.950000
v 1.000000 0.400000 2.950000
v 0.950000 0.400000 3.000000
v -0.950000 2.100000 -3.000000
v -1.000000 2.100000 -2.950000
v -0.950000 2.150000 -2.950000
v 0.950000 2.150000 -2.950000
v 1.000000 2.100000 -2.950000
v 0.950000 2.100000 -3.000000
v -0.950000 2.150000 2.950000
v -1.000000 2.100000 2.950000
v -0.950000 2.100000 3.000000
v 0.950000 2.150000 2.950000
v 0.950000 2.100000 3.000000
v 1.000000 2.100000 2.950000
v -1.150000 2.254426 -3.135000
v -1.200000 2.264371 -3.085000
v -0.504425 2.900000 -3.135000
v -0.514371 2.950000 -3.085000
v -0.960916 2.710916 -3.135000
v -0.999184 2.749184 -3.085000
v 0.504425 2.900000 -3.135000
v 0.514371 2.950000 -3.085000
v 1.150000 2.254426 -3.135000
v 1.200000 2.264371 -3.085000
v 0.960916 2.710916 -3.135000
v 0.999184 2.749184 -3.085000
v -0.504426 2.900000 3.135000
v -0.514371 2.950000 3.085000
v -1.150000 2.254426 3.135000
v -1.200000 2.264371 3.085000
v -0.960916 2.710916 3.135000
v -0.999184 2.749184 3.085000
v 1.150000 2.254426 3.135000
v 1.200000 2.264371 3.085000
v 0.504425 2.900000 3.135000
v 0.514371 2.950000 3.085000
v 0.960916 2.710916 3.135000
v 0.999184 2.749184 3.085000
v 0.514371 2.950000 -1.097030
v 0.514371 3.002262 -1.045000
v 0.999184 2.749184 -0.906300
v 0.999184 2.801496 -0.854225
v 1.013565 2.714466 -0.821242
v 0.514371 3.002262 1.045000
v 0.514371 2.950000 1.097030
v 0.999184 2.801496 0.854225
v 0.999184 2.749184 0.906300
v 1.013565 2.714466 0.821243
v -0.514371 3.002262 -1.045000
v -0.514371 2.950000 -1.097030
v -0.999184 2.801496 -0.854225
v -0.999184 2.749184 -0.906300
v -1.013565 2.714466 -0.821242
v -0.514371 2.950000 1.097030
v -0.514371 3.002262 1.045000
v -0.999184 2.749184 0.906300
v -0.999184 2.801496 0.854225
v -1.013565 2.714466 0.821243
v 0.514371 3.397739 -1.045000
v 0.514371 3.450000 -0.992970
v 0.999184 3.196872 -0.854225
v 0.999184 3.249184 -0.802150
v 1.013565 3.214466 -0.821242
v 0.514371 3.450000 0.992970
v 0.514371 3.397739 1.045000
v 0.999184 3.249184 0.802150
v 0.999184 3.196872 0.854225
v 1.013565 3.214466 0.821243
v -0.514371 3.450000 -0.992970
v -0.514371 3.397739 -1.045000
v -0.999184 3.249184 -0.802150
v -0.999184 3.196872 -0.854225
v -1.013565 3.214466 -0.821242
v -0.514371 3.397739 1.045000
v -0.514371 3.450000 0.992970
v -0.999184 3.196872 0.854225
v -0.999184 3.249184 0.802150
v -1.013565 3.214466 0.821243
vn -0.0000 -0.0000 1.0000
vn -0.0000 -1.0000 -0.0000
vn 1.0000 -0.0000 -0.0000
vn -1.0000 -0.0000 -0.0000
vn -0.0000 -0.0000 -1.0000
vn -0.0000 1.0000 -0.0000
vn 0.7295 0.6715 0.1302
vn 0.7173 -0.1286 -0.6848
vn 0.9239 0.3827 -0.0000
vn 0.7173 -0.1286 0.6848
vn 0.7295 0.6715 -0.1302
vn 0.9167 -0.0000 0.3996
vn -0.7173 -0.1286 -0.6848
vn -0.7295 0.6715 0.1302
vn -0.9167 -0.0000 -0.3996
vn -0.7295 0.6715 -0.1302
vn -0.7173 -0.1286 0.6848
vn -0.9239 0.3827 -0.0000
vn 0.6870 -0.0948 -0.7205
vn 0.6988 0.7091 0.0942
vn 0.9167 -0.0000 -0.3997
vn 0.6988 0.7091 -0.0942
vn 0.6870 -0.0948 0.7205
vn -0.6988 0.7091 0.0942
vn -0.6870 -0.0948 -0.7205
vn -0.6870 -0.0948 0.7205
vn -0.6988 0.7091 -0.0942
vn -0.9167 -0.0000 0.3997
vn 0.1893 -0.0183 0.9818
vn 0.1982 0.9800 -0.0200
vn -0.0001 -0.0000 1.0000
vn -0.0000 -0.0001 1.0000
vn 0.7054 0.7055 -0.0682
vn 0.1951 0.9806 -0.0187
vn 0.9806 0.1950 -0.0187
vn 0.0001 -0.0000 1.0000
vn -0.7055 0.7054 -0.0682
vn -0.9806 0.1951 -0.0187
vn -0.1893 -0.0183 0.9818
vn -0.1982 0.9800 -0.0200
vn -0.1950 0.9806 -0.0187
vn -0.0001 -0.0000 -1.0000
vn -0.0000 -0.0001 -1.0000
vn 0.1950 0.9806 0.0187
vn 0.7055 0.7054 0.0682
vn 0.1893 -0.0183 -0.9818
vn 0.1982 0.9800 0.0200
vn 0.9806 0.1951 0.0187
vn 0.0001 -0.0000 -1.0000
vn -0.9806 0.1950 0.0187
vn -0.7054 0.7055 0.0682
vn -0.1951 0.9806 0.0187
vn -0.1893 -0.0183 -0.9818
vn -0.1982 0.9800 0.0200
vn 0.1893 -0.0184 -0.9817
vn 0.1981 0.9800 0.0200
vn 0.1894 -0.0184 0.9817
vn 0.1981 0.9800 -0.0200
vn -0.1894 -0.0184 -0.9817
vn -0.1981 0.9800 0.0200
vn -0.1893 -0.0184 0.9817
vn -0.1981 0.9800 -0.0200
vn 0.9893 0.1041 0.1027
vn 0.9808 0.1951 -0.0000
vn 0.9893 0.1041 -0.1027
vn 0.9767 0.1469 -0.1565
vn 0.9767 0.1469 0.1565
vn -0.9808 0.1951 -0.0000
vn -0.9893 0.1041 0.1027
vn -0.9767 0.1469 0.1565
vn -0.9767 0.1469 -0.1565
vn -0.9893 0.1041 -0.1027
vn -0.9576 0.1983 -0.2088
vn -0.8087 0.5883 -0.0000
vn -0.7071 0.7071 -0.0000
vn -0.2145 0.9767 -0.0000
vn -0.1951 0.9808 -0.0000
vn 0.1951 0.9808 -0.0000
vn 0.2145 0.9767 -0.0000
vn 0.8087 0.5883 -0.0000
vn 0.7071 0.7071 -0.0000
vn 0.9576 0.1983 -0.2088
vn -0.9576 0.1983 0.2088
vn 0.9576 0.1983 0.2088
vn 0.2058 -0.0000 -0.9786
vn 0.1616 -0.0000 -0.9869
vn 0.7007 -0.0000 -0.7135
vn 0.8003 -0.0000 -0.5996
vn -0.2058 -0.0000 -0.9786
vn -0.1616 -0.0000 -0.9869
vn 0.9577 0.2008 -0.2062
vn 0.8003 -0.0000 0.5996
vn 0.7007 -0.0000 0.7135
vn 0.1616 -0.0000 0.9869
vn 0.2058 -0.0000 0.9786
vn -0.2058 -0.0000 0.9786
vn -0.1616 -0.0000 0.9869
vn 0.9577 0.2008 0.2062
vn -0.8003 -0.0000 -0.5996
vn -0.7007 -0.0000 -0.7135
vn -0.9577 0.2008 -0.2062
vn -0.7007 -0.0000 0.7135
vn -0.8003 -0.0000 0.5996
vn -0.9577 0.2008 0.2062
vn 0.1707 0.9853 -0.0000
vn 0.7160 0.6981 -0.0000
vn -0.1707 0.9853 -0.0000
vn -0.7160 0.6981 -0.0000
vt 0.004108 0.000000
vt 0.004108 0.004108
vt 0.000000 0.004108
vt 0.193060 0.000000
vt 0.197168 0.004108
vt 0.193060 0.004108
vt 0.357367 0.492920
vt 0.357367 0.488813
vt 0.361475 0.488812
vt 0.201276 0.488813
vt 0.201276 0.492920
vt 0.197168 0.488812
vt 0.004108 0.515102
vt 0.000000 0.510994
vt 0.004108 0.510994
vt 0.193060 0.515102
vt 0.193060 0.510994
vt 0.197168 0.510994
vt 0.357367 0.004108
vt 0.357367 0.000000
vt 0.361475 0.004108
vt 0.201276 0.004108
vt 0.197168 0.004108
vt 0.201276 0.000000
vt 0.201276 0.840492
vt 0.201276 0.844600
vt 0.197168 0.840492
vt 0.197168 0.684401
vt 0.201276 0.680294
vt 0.201276 0.684401
vt 0.345044 0.684401
vt 0.349152 0.680294
vt 0.349152 0.684401
vt 0.345044 0.840492
vt 0.349152 0.840492
vt 0.349152 0.844600
vt 0.856896 0.332006
vt 0.852715 0.327728
vt 0.859909 0.325019
vt 0.524305 0.679765
vt 0.525647 0.676015
vt 0.525647 0.680294
vt 0.963895 0.327466
vt 0.959735 0.331791
vt 0.956706 0.324779
vt 0.361475 0.676015
vt 0.362817 0.679765
vt 0.361475 0.680294
vt 0.820661 0.327728
vt 0.816428 0.323453
vt 0.819439 0.325019
vt 0.816428 0.191649
vt 0.820660 0.187373
vt 0.819439 0.190083
vt 0.999998 0.322699
vt 0.995787 0.327024
vt 0.996970 0.324221
vt 0.995787 0.187000
vt 0.999998 0.191207
vt 0.996970 0.189604
vt 0.340936 0.680294
vt 0.340936 0.684401
vt 0.488812 0.844600
vt 0.488812 0.840492
vt 0.488812 0.680294
vt 0.488812 0.684401
vt 0.521674 0.488813
vt 0.521674 0.004108
vt 0.529828 0.004108
vt 0.529828 0.488812
vt 0.361475 0.488813
vt 0.361475 0.004108
vt 0.365582 0.004108
vt 0.365582 0.488813
vt 0.340936 0.844600
vt 0.340936 0.840492
vt 0.485818 0.664621
vt 0.485818 0.660346
vt 0.485525 0.492920
vt 0.524076 0.492920
vt 0.525647 0.497028
vt 0.485818 0.497028
vt 0.858556 -0.000000
vt 0.898332 -0.000000
vt 0.898962 0.004108
vt 0.856896 0.004108
vt 0.918064 0.000011
vt 0.958066 0.000547
vt 0.959735 0.004668
vt 0.917429 0.004098
vt 0.401304 0.664621
vt 0.401304 0.660346
vt 0.363047 0.492920
vt 0.401597 0.492920
vt 0.401304 0.497028
vt 0.361475 0.497028
vt 0.359769 0.680294
vt 0.321219 0.680293
vt 0.321512 0.676186
vt 0.361341 0.676186
vt 0.321512 0.508593
vt 0.359999 0.493448
vt 0.361341 0.497198
vt 0.321512 0.512867
vt 0.898332 0.515101
vt 0.858556 0.515102
vt 0.856896 0.510994
vt 0.898962 0.510994
vt 0.958066 0.514431
vt 0.918064 0.513895
vt 0.917430 0.509786
vt 0.959735 0.510356
vt 0.237290 0.680294
vt 0.198740 0.680294
vt 0.197168 0.676186
vt 0.236997 0.676186
vt 0.198510 0.493448
vt 0.236997 0.508593
vt 0.236997 0.512867
vt 0.197168 0.497198
vt 0.164173 0.671129
vt 0.124815 0.686616
vt 0.124344 0.682528
vt 0.164173 0.666851
vt 0.124815 0.515287
vt 0.164173 0.530774
vt 0.164173 0.535053
vt 0.124344 0.519376
vt 0.039357 0.686616
vt 0.000000 0.671129
vt 0.000000 0.666851
vt 0.039829 0.682528
vt 0.000000 0.530774
vt 0.039357 0.515287
vt 0.039829 0.519376
vt 0.000000 0.535053
vt 0.912246 0.509858
vt 0.912246 0.513956
vt 0.904172 0.510994
vt 0.904172 0.515102
vt 0.912246 0.000072
vt 0.912246 0.004170
vt 0.904172 -0.000000
vt 0.904172 0.004108
vt 0.648514 0.685981
vt 0.611012 0.670447
vt 0.595478 0.632944
vt 0.595478 0.550064
vt 0.611012 0.512562
vt 0.648514 0.497028
vt 0.652985 0.497028
vt 0.652985 0.685981
vt 0.898962 0.225211
vt 0.898962 0.289891
vt 0.858492 0.289891
vt 0.858492 0.225211
vt 0.917430 0.224679
vt 0.957694 0.224120
vt 0.957694 0.288647
vt 0.917430 0.289206
vt 0.675500 0.489612
vt 0.675500 0.006052
vt 0.812400 0.004154
vt 0.812400 0.487713
vt 0.667426 0.004108
vt 0.667426 0.488813
vt 0.582791 0.685981
vt 0.545289 0.670447
vt 0.529755 0.632944
vt 0.529755 0.550064
vt 0.545289 0.512562
vt 0.582791 0.497028
vt 0.587262 0.497028
vt 0.587262 0.685981
vt 0.959735 0.183232
vt 0.956706 0.190163
vt 0.859909 0.190083
vt 0.856896 0.183095
vt 0.765831 0.533594
vt 0.733341 0.533594
vt 0.749843 0.493765
vt 0.782324 0.493765
vt 0.765831 0.618109
vt 0.733341 0.618109
vt 0.724750 0.657938
vt 0.692268 0.657938
vt 0.675767 0.618109
vt 0.708256 0.618109
vt 0.708256 0.533594
vt 0.675767 0.533594
vt 0.852662 0.187373
vt 0.782324 0.657938
vt 0.749843 0.657938
vt 0.692268 0.493765
vt 0.724750 0.493765
vt 0.963948 0.187442
s 1
usemtl Body
f 141/223/83 142/224/84 143/225/85
f 144/226/83 145/227/86 146/228/84
f 147/229/87 148/230/84 149/231/86
f 150/232/84 151/233/87 152/234/85
f 153/235/87 154/236/85 155/237/84
f 156/238/87 157/239/84 158/240/86
f 159/241/84 160/242/83 161/243/86
f 162/244/84 163/245/85 164/246/83
f 165/247/87 166/248/86 167/249/88
f 168/250/88 169/251/85 170/252/87
f 171/253/88 172/254/86 173/255/83
f 174/256/88 175/257/83 176/258/85
f 203/259/89 204/260/90 205/261/91
f 208/262/92 209/263/93 210/264/94
f 213/265/95 214/266/96 215/267/97
f 218/268/98 219/269/99 220/270/100
f 223/271/101 224/272/102 225/273/103
f 228/274/104 229/275/105 230/276/91
f 233/277/106 234/278/107 235/279/100
f 238/280/108 239/281/109 240/282/110
f 167/249/88 168/250/88 170/252/87 165/247/87
f 147/229/87 151/233/87 150/232/84 148/230/84
f 169/251/85 152/283/85 151/284/87 170/252/87
f 173/255/83 175/257/83 174/256/88 171/253/88
f 159/241/84 162/244/84 164/246/83 160/242/83
f 163/285/85 176/258/85 175/257/83 164/286/83
f 172/254/86 161/287/86 160/288/83 173/255/83
f 168/289/88 174/290/88 176/291/85 169/292/85
f 162/244/84 150/232/84 152/234/85 163/245/85
f 161/243/86 149/231/86 148/230/84 159/241/84
f 166/293/86 172/294/86 171/295/88 167/296/88
f 149/297/86 166/248/86 165/247/87 147/298/87
f 146/228/84 142/224/84 141/223/83 144/226/83
f 156/238/87 153/235/87 155/237/84 157/239/84
f 142/224/84 155/237/84 154/236/85 143/225/85
f 145/227/86 158/240/86 157/239/84 146/228/84
f 208/262/92 206/299/111 207/300/112 209/263/93
f 197/301/113 199/302/114 200/303/115 198/304/116
f 199/305/114 195/306/113 196/307/117 200/308/115
f 191/309/114 193/310/118 194/311/119 192/312/120
f 217/313/121 219/269/99 218/268/98 216/314/122
f 193/315/118 189/316/114 190/317/123 194/318/119
f 187/319/124 183/320/125 184/321/126 188/322/127
f 202/323/128 204/324/90 203/325/89 201/326/129
f 185/327/125 187/328/124 188/329/127 186/330/130
f 181/331/125 177/332/131 178/333/132 182/334/133
f 179/335/131 181/336/125 182/337/133 180/338/134
f 213/339/95 211/340/135 212/341/136 214/342/96
f 223/343/101 221/344/137 222/345/138 224/346/102
f 227/347/139 229/348/105 228/349/104 226/350/140
f 232/351/141 234/352/107 233/353/106 231/354/142
f 238/355/108 236/356/143 237/357/144 239/358/109
f 183/320/125 179/335/131 180/338/134 184/321/126
f 211/340/135 202/323/128 201/326/129 212/341/136
f 158/359/86 178/333/132 177/332/131 156/360/87
f 186/330/130 154/361/85 153/362/87 185/327/125
f 144/363/83 191/309/114 192/312/120 145/364/86
f 195/306/113 141/365/83 143/366/85 196/307/117
f 198/304/116 190/317/123 189/316/114 197/301/113
f 206/299/111 217/313/121 216/314/122 207/300/112
f 231/354/142 222/345/138 221/344/137 232/351/141
f 226/350/140 237/357/144 236/356/143 227/347/139
f 195/367/83 199/368/83 197/369/83 189/370/83 193/371/83 191/372/83 144/373/83 141/374/83
f 155/237/84 142/224/84 146/228/84 157/239/84
f 134/375/145 196/307/146 143/366/85 154/361/85 186/330/146 133/376/147 137/377/148 138/378/149
f 158/359/86 145/364/86 192/312/150 136/379/151 140/380/152 139/381/153 135/382/154 178/333/150
f 148/230/84 150/232/84 162/244/84 159/241/84
f 149/383/86 161/384/86 172/385/86 166/386/86
f 165/247/87 170/252/87 151/284/87 147/298/87
f 169/292/85 176/291/85 163/387/85 152/388/85
f 177/389/87 181/390/87 179/391/87 183/392/87 187/393/87 185/394/87 153/395/87 156/396/87
f 175/257/83 173/255/83 160/288/83 164/286/83
f 168/289/88 167/296/88 171/295/88 174/290/88
f 178/333/150 135/382/154 215/267/155 214/266/156 182/334/157
f 182/337/157 214/342/156 212/341/158 180/338/159
f 184/321/160 180/338/159 212/341/158 201/326/161
f 184/321/160 201/326/161 203/325/162 188/322/163
f 188/329/163 203/259/162 205/261/164 133/376/147 186/330/146
f 218/268/156 194/318/157 190/317/159 216/314/158
f 207/300/161 216/314/158 190/317/159 198/304/160
f 136/379/151 192/312/150 194/311/157 218/397/156 220/398/165
f 210/399/166 209/400/162 200/308/163 196/307/146 134/375/145
f 207/300/161 198/304/160 200/303/163 209/263/162
f 202/401/167 221/402/168 223/403/169 204/404/170
f 202/401/167 211/405/171 232/406/172 221/402/168
f 205/261/164 204/260/170 223/271/169 225/273/173 137/377/148 133/376/147
f 208/407/174 229/408/175 227/409/176 206/410/177
f 217/411/178 206/410/177 227/409/176 236/412/179
f 134/375/145 138/378/149 230/276/180 229/275/175 208/413/174 210/399/166
f 232/406/172 211/405/171 213/414/181 234/415/182
f 235/279/183 234/278/182 213/265/181 215/267/155 135/382/154 139/381/153
f 238/416/184 219/417/185 217/411/178 236/412/179
f 140/380/152 136/379/151 220/398/165 219/418/185 238/280/184 240/282/186
f 222/345/187 226/350/187 228/349/188 224/346/188
f 222/345/187 231/354/189 237/357/189 226/350/187
f 225/273/173 224/272/188 228/274/188 230/276/180 138/378/149 137/377/148
f 233/353/190 239/358/190 237/357/189 231/354/189
f 139/381/153 140/380/152 240/282/186 239/281/190 233/277/190 235/279/183
o SeatBody
v -0.950000 1.596531 -2.603469
v -1.000000 1.478652 -2.625964
v -0.950000 1.546531 -2.553469
v 0.950000 0.350000 -2.950000
v 0.950000 0.400000 -3.000000
v 1.000000 0.400000 -2.950000
v 0.950000 0.350000 2.950000
v 1.000000 0.400000 2.950000
v 0.950000 0.400000 3.000000
v -0.950000 2.950000 -2.653469
v -1.000000 2.900000 -2.627022
v -0.950000 2.900000 -2.603469
v 0.553469 2.900000 -2.603469
v 0.603469 2.900000 -2.553469
v 0.653469 2.950000 -2.653469
v -0.950000 2.900000 2.603469
v -1.000000 2.900000 2.627022
v -0.950000 2.950000 2.653469
v 0.553469 2.900000 2.603469
v 0.653469 2.950000 2.653469
v 0.603469 2.900000 2.553469
v -0.950000 2.950000 -2.950000
v -0.950000 2.900000 -3.000000
v -1.000000 2.900000 -2.976447
v 0.950000 2.950000 -2.950000
v 1.000000 2.900000 -2.950000
v 0.950000 2.900000 -3.000000
v -0.950000 2.950000 2.950000
v -1.000000 2.900000 2.976447
v -0.950000 2.900000 3.000000
v 0.950000 2.900000 3.000000
v 1.000000 2.900000 2.950000
v 0.950000 2.950000 2.950000
v -0.950000 0.350000 2.950000
v -0.950000 0.400000 3.000000
v -1.000000 0.417879 2.977505
v -0.950000 0.400000 -3.000000
v -0.950000 0.350000 -2.950000
v -1.000000 0.417879 -2.977505
v 0.553469 1.546531 -2.553469
v 0.603469 1.596531 -2.553469
v 0.553469 1.596531 -2.603469
v -0.950000 1.546531 2.553469
v -1.000000 1.478652 2.625964
v -0.950000 1.596531 2.603469
v 0.603469 1.596531 2.553469
v 0.553469 1.546531 2.553469
v 0.553469 1.596531 2.603469
vn -0.0000 -0.0000 1.0000
vn -1.0000 -0.0000 -0.0000
vn -0.0000 1.0000 -0.0001
vn -0.0000 -1.0000 -0.0000
vn -0.0000 -0.0000 -1.0000
vn 1.0000 -0.0000 -0.0000
vn -0.0000 1.0000 -0.0000
vn -1.0000 -0.0000 -0.0001
vn 0.0001 -0.0000 -1.0000
vn 0.0001 1.0000 -0.0000
vn -0.0000 -0.0001 1.0000
vn -1.0000 -0.0001 -0.0000
vn -0.0000 1.0000 0.0001
vt 0.366175 0.036704
vt 0.376856 0.034622
vt 0.370573 0.041332
vt 0.485955 0.550749
vt 0.485955 0.555377
vt 0.481327 0.550749
vt 0.485955 0.004628
vt 0.481327 0.004628
vt 0.485955 0.000000
vt 0.671081 0.523301
vt 0.666453 0.520853
vt 0.671081 0.518673
vt 0.810246 0.518673
vt 0.814874 0.514096
vt 0.819502 0.523301
vt 0.671081 0.036704
vt 0.666453 0.034524
vt 0.671081 0.032076
vt 0.810246 0.036704
vt 0.819502 0.032076
vt 0.814874 0.041281
vt 0.671081 0.550749
vt 0.671081 0.555377
vt 0.666453 0.553197
vt 0.846950 0.550749
vt 0.851566 0.550761
vt 0.846950 0.555377
vt 0.671081 0.004628
vt 0.666453 0.002180
vt 0.671081 0.000000
vt 0.846950 0.000000
vt 0.851566 0.004616
vt 0.846950 0.004628
vt 0.661824 0.004628
vt 0.661824 0.000000
vt 0.666453 0.002082
vt 0.661824 0.555377
vt 0.661824 0.550749
vt 0.666453 0.553295
vt 0.370251 0.560005
vt 0.374879 0.555377
vt 0.374880 0.560005
vt 0.370573 0.514045
vt 0.376856 0.520755
vt 0.366175 0.518673
vt 1.000000 0.004628
vt 0.995372 0.004628
vt 0.995372 0.000000
vt 0.004628 0.550749
vt 0.236035 0.550749
vt 0.236035 0.555377
vt 0.004628 0.555377
vt 0.185126 0.791412
vt 0.185126 0.560005
vt 0.189754 0.560005
vt 0.189754 0.791413
vt 0.370251 0.560005
vt 0.370251 0.789757
vt 0.365623 0.791412
vt 0.365623 0.560005
vt 0.000000 0.789757
vt 0.000000 0.560005
vt 0.004628 0.560005
vt 0.004628 0.791412
vt 0.245292 0.036704
vt 0.245292 0.034524
vt 0.504789 0.555377
vt 0.625441 0.555377
vt 0.625441 0.560005
vt 0.504789 0.560005
vt 0.856206 0.000000
vt 0.856207 0.004628
vt 1.000000 0.477341
vt 0.995372 0.477341
vt 0.495532 0.560005
vt 0.495532 0.555377
vt 0.245292 0.518673
vt 0.245292 0.520853
vt 0.374880 0.699171
vt 0.370251 0.699171
vt 0.495532 0.699171
vt 0.245292 0.002180
vt 0.475044 0.002082
vt 0.475044 0.553295
vt 0.856206 0.477341
vt 0.180498 0.560005
vt 0.180498 0.791412
vt 0.004628 0.004628
vt 0.236035 0.004628
vt 0.856207 0.486597
vt 0.976859 0.486597
vt 0.976859 0.959310
vt 0.856206 0.959310
vt 0.625441 0.699171
vt 0.504789 0.699171
vt 0.245292 0.553197
s 1
usemtl Body
f 241/419/191 242/420/192 243/421/193
f 244/422/194 245/423/195 246/424/196
f 247/425/194 248/426/196 249/427/191
f 250/428/197 251/429/192 252/430/191
f 253/431/191 254/432/198 255/433/197
f 256/434/195 257/435/192 258/436/197
f 259/437/199 260/438/197 261/439/192
f 262/440/197 263/441/195 264/442/192
f 265/443/197 266/444/196 267/445/195
f 268/446/197 269/447/192 270/448/191
f 271/449/191 272/450/196 273/451/197
f 274/452/194 275/453/191 276/454/192
f 277/455/195 278/456/194 279/457/192
f 280/458/200 281/459/198 282/460/201
f 283/461/197 284/462/192 285/463/195
f 286/464/202 287/465/203 288/466/199
f 262/440/197 265/443/197 267/445/195 263/441/195
f 277/455/195 245/423/195 244/422/194 278/456/194
f 266/467/196 246/468/196 245/469/195 267/470/195
f 270/448/191 271/449/191 273/451/197 268/446/197
f 274/452/194 247/425/194 249/427/191 275/453/191
f 248/471/196 272/472/196 271/473/191 249/474/191
f 269/475/192 276/476/192 275/477/191 270/478/191
f 265/443/197 273/451/197 272/450/196 266/444/196
f 247/425/194 244/422/194 246/424/196 248/426/196
f 276/454/192 279/457/192 278/456/194 274/452/194
f 279/479/192 264/480/192 263/481/195 277/482/195
f 252/430/191 253/431/191 255/433/197 250/428/197
f 258/436/197 260/438/197 259/437/199 256/434/195
f 254/432/198 261/439/192 260/438/197 255/433/197
f 241/419/191 252/483/191 251/484/192 242/420/192
f 264/442/192 251/429/192 250/428/197 262/440/197
f 257/435/192 269/447/192 268/446/197 258/436/197
f 261/485/192 286/486/202 288/487/199 259/488/199
f 285/489/195 288/466/199 287/465/203 283/490/197
f 286/464/202 281/491/198 280/492/200 287/465/203
f 253/493/191 282/460/201 281/459/198 254/494/198
f 256/495/195 285/463/195 284/462/192 257/496/192
f 283/461/197 243/421/193 242/420/192 284/462/192
f 282/460/201 241/497/191 243/498/193 280/458/200
f 252/499/191 241/497/191 282/460/191 253/493/191
f 242/420/192 251/484/192 264/500/192 279/501/192
f 284/462/192 242/420/192 279/501/192 276/502/192
f 287/465/197 280/492/197 243/503/197 283/490/197
f 278/456/194 244/422/194 247/425/194 274/452/194
f 263/481/195 267/504/195 245/505/195 277/482/195
f 266/467/196 272/506/196 248/507/196 246/468/196
f 271/473/191 270/478/191 275/477/191 249/474/191
f 250/428/197 255/433/197 265/443/197 262/440/197
f 255/433/197 260/438/197 273/451/197 265/443/197
f 254/508/192 281/509/192 286/510/192 261/511/192
f 259/488/195 288/487/195 285/512/195 256/513/195
f 260/438/197 258/436/197 268/446/197 273/451/197
f 257/496/192 284/462/192 276/502/192 269/514/192
o WagonBodyB
v -0.950000 0.400000 -3.000000
v -0.950000 0.350000 -2.950000
v -1.000000 0.400000 -2.950000
v 0.950000 0.350000 -2.950000
v 0.950000 0.400000 -3.000000
v 1.000000 0.400000 -2.950000
v -0.950000 0.350000 2.950000
v -0.950000 0.400000 3.000000
v -1.000000 0.400000 2.950000
v 0.950000 0.350000 2.950000
v 1.000000 0.400000 2.950000
v 0.950000 0.400000 3.000000
v -0.950000 2.100000 -3.000000
v -1.000000 2.100000 -2.950000
v -0.950000 2.150000 -2.950000
v 0.950000 2.150000 -2.950000
v 1.000000 2.100000 -2.950000
v 0.950000 2.100000 -3.000000
v -0.950000 2.150000 2.950000
v -1.000000 2.100000 2.950000
v -0.950000 2.100000 3.000000
v 0.950000 2.150000 2.950000
v 0.950000 2.100000 3.000000
v 1.000000 2.100000 2.950000
v -0.497488 2.781043 3.150000
v -0.477979 2.733944 3.200000
v 0.000000 2.829021 3.200000
v 0.000000 2.880000 3.150000
v -0.919239 2.499239 3.150000
v -0.883191 2.463191 3.200000
v -1.173265 2.119062 3.150000
v -1.151043 2.077488 3.150000
v -1.107500 2.127488 3.200000
v 1.173265 2.119062 3.150000
v 1.107500 2.127488 3.200000
v 1.151043 2.077488 3.150000
v 0.919239 2.499239 3.150000
v 0.883191 2.463191 3.200000
v 0.497488 2.781043 3.150000
v 0.477979 2.733944 3.200000
v -0.477979 2.733947 -3.200000
v -0.497488 2.781045 -3.150000
v 0.000000 2.880002 -3.150000
v 0.000000 2.829023 -3.200000
v -0.883191 2.463193 -3.200000
v -0.919239 2.499241 -3.150000
v -1.173265 2.119064 -3.150000
v -1.107500 2.127491 -3.200000
v -1.151043 2.077491 -3.150000
v 1.173265 2.119064 -3.150000
v 1.151043 2.077491 -3.150000
v 1.107500 2.127491 -3.200000
v 0.883191 2.463193 -3.200000
v 0.919239 2.499241 -3.150000
v 0.477979 2.733947 -3.200000
v 0.497488 2.781045 -3.150000
vn -0.0000 -0.0000 -1.0000
vn -0.0000 -1.0000 -0.0000
vn -1.0000 -0.0000 -0.0000
vn 1.0000 -0.0000 -0.0000
vn -0.0000 -0.0000 1.0000
vn -0.0000 1.0000 -0.0000
vn -0.8315 0.5556 -0.0000
vn 0.8315 0.5556 -0.0000
vn -0.0000 -0.0001 1.0000
vn -0.0000 0.9998 -0.0187
vn -0.3826 0.9237 -0.0187
vn -0.7070 0.7070 -0.0187
vn -0.0001 -0.0000 1.0000
vn 0.7070 0.7070 -0.0187
vn 0.3826 0.9237 -0.0187
vn -0.3826 0.9237 0.0187
vn -0.0000 0.9998 0.0187
vn -0.0000 -0.0001 -1.0000
vn 0.0001 -0.0000 -1.0000
vn -0.7070 0.7070 0.0187
vn 0.7070 0.7070 0.0187
vn 0.3826 0.9237 0.0187
vn -0.3827 0.9239 -0.0000
vn -0.7071 0.7071 -0.0000
vn 0.3827 0.9239 -0.0000
vn 0.7071 0.7071 -0.0000
vt 0.350975 0.483871
vt 0.350975 0.479839
vt 0.355007 0.479839
vt 0.197749 0.479839
vt 0.197749 0.483871
vt 0.193717 0.479839
vt 0.350975 0.004032
vt 0.350975 0.000000
vt 0.355007 0.004032
vt 0.197749 0.004032
vt 0.193717 0.004032
vt 0.197749 0.000000
vt 0.197749 0.641129
vt 0.197749 0.645161
vt 0.193717 0.641129
vt 0.193717 0.487903
vt 0.197749 0.483871
vt 0.197749 0.487903
vt 0.338878 0.487903
vt 0.342910 0.483871
vt 0.342910 0.487903
vt 0.338878 0.641129
vt 0.342910 0.641129
vt 0.342910 0.645161
vt 0.003353 0.707605
vt 0.000000 0.705814
vt 0.004032 0.702302
vt 0.003353 0.518369
vt 0.004032 0.523673
vt 0.000000 0.520161
vt 0.068071 0.518369
vt 0.068751 0.523673
vt 0.064719 0.520161
vt 0.068071 0.707606
vt 0.064719 0.705814
vt 0.068751 0.702302
vt 0.334846 0.483871
vt 0.334846 0.487903
vt 0.480007 0.645161
vt 0.480007 0.641129
vt 0.480007 0.483871
vt 0.480007 0.487903
vt 0.942383 0.004032
vt 0.942383 0.479839
vt 0.938524 0.479839
vt 0.938524 0.004032
vt 0.355007 0.479839
vt 0.355007 0.004032
vt 0.359039 0.004032
vt 0.359039 0.479839
vt 0.334846 0.645161
vt 0.334846 0.641129
vt 0.550369 0.000000
vt 0.590429 0.000000
vt 0.590430 0.004032
vt 0.550309 0.004032
vt 0.516964 0.000000
vt 0.516297 0.004032
vt 0.031105 0.684212
vt 0.034012 0.687120
vt 0.031105 0.541762
vt 0.034012 0.538855
vt 0.630490 0.000000
vt 0.663895 0.000000
vt 0.664562 0.004032
vt 0.630550 0.004032
vt 0.550309 0.512097
vt 0.590430 0.512097
vt 0.590429 0.516129
vt 0.550369 0.516129
vt 0.516297 0.512097
vt 0.516964 0.516129
vt 0.098731 0.538855
vt 0.095824 0.541762
vt 0.098731 0.687120
vt 0.095824 0.684213
vt 0.630550 0.512097
vt 0.664562 0.512097
vt 0.663895 0.516129
vt 0.630490 0.516129
vt 0.946242 0.004032
vt 0.946242 0.512097
vt 0.942383 0.512097
vt 0.942383 0.004032
vt 0.189684 0.512097
vt 0.189684 0.004032
vt 0.193717 0.004032
vt 0.193717 0.512097
vt 0.668420 0.479839
vt 0.668420 0.004032
vt 0.799614 0.004032
vt 0.799614 0.479839
vt 0.807331 0.479839
vt 0.807331 0.004032
vt 0.512265 0.479839
vt 0.512265 0.004032
vt 0.052940 0.651534
vt 0.052940 0.574441
vt 0.060607 0.612987
vt 0.664562 0.995968
vt 0.664562 0.487903
vt 0.699848 0.487903
vt 0.699848 0.995968
vt 0.004032 0.512097
vt 0.004032 0.004032
vt 0.981528 0.004032
vt 0.981528 0.512097
vt 0.117659 0.574441
vt 0.125326 0.612987
vt 0.117659 0.651534
s 1
usemtl Body
f 289/515/204 290/516/205 291/517/206
f 292/518/205 293/519/204 294/520/207
f 295/521/205 296/522/208 297/523/206
f 298/524/205 299/525/207 300/526/208
f 301/527/204 302/528/206 303/529/209
f 304/530/209 305/531/207 306/532/204
f 307/533/209 308/534/206 309/535/208
f 310/536/209 311/537/208 312/538/207
f 319/539/210 320/540/205 321/541/208
f 322/542/211 323/543/208 324/544/205
f 335/545/210 336/546/204 337/547/205
f 338/548/211 339/549/205 340/550/204
f 303/529/209 304/530/209 306/532/204 301/527/204
f 289/515/204 293/519/204 292/518/205 290/516/205
f 305/531/207 294/551/207 293/552/204 306/532/204
f 309/535/208 311/537/208 310/536/209 307/533/209
f 295/521/205 298/524/205 300/526/208 296/522/208
f 299/553/207 312/538/207 311/537/208 300/554/208
f 308/534/206 297/555/206 296/556/208 309/535/208
f 304/557/209 310/558/209 312/559/207 305/560/207
f 298/524/205 292/518/205 294/520/207 299/525/207
f 297/523/206 291/517/206 290/516/205 295/521/205
f 302/561/206 308/562/206 307/563/209 303/564/209
f 291/565/206 302/528/206 301/527/204 289/566/204
f 314/567/212 315/568/212 316/569/213 313/570/214
f 318/571/212 314/567/212 313/570/214 317/572/215
f 321/541/208 318/573/212 317/574/215 319/539/210
f 326/575/216 323/543/208 322/542/211 325/576/217
f 328/577/216 326/578/216 325/579/217 327/580/218
f 315/568/212 328/577/216 327/580/218 316/569/213
f 320/540/205 324/544/205 323/543/208 321/541/208
f 330/581/219 331/582/220 332/583/221 329/584/222
f 334/585/223 330/581/219 329/584/222 333/586/222
f 335/545/210 334/587/223 333/588/222 336/546/204
f 342/589/224 338/548/211 340/550/204 341/590/221
f 344/591/225 342/592/224 341/593/221 343/594/221
f 331/582/220 344/591/225 343/594/221 332/583/221
f 336/546/204 340/550/204 339/549/205 337/547/205
f 338/595/211 322/596/211 324/597/205 339/598/205
f 337/599/205 320/600/205 319/601/210 335/602/210
f 290/516/205 292/518/205 298/524/205 295/521/205
f 291/603/206 297/604/206 308/605/206 302/606/206
f 301/527/204 306/532/204 293/552/204 289/566/204
f 305/560/207 312/559/207 299/607/207 294/608/207
f 311/537/208 309/535/208 296/556/208 300/554/208
f 304/609/209 303/564/209 307/563/209 310/610/209
f 316/569/209 331/582/209 330/581/226 313/570/226
f 314/611/208 318/573/208 321/541/208 323/543/208 326/575/208 328/612/208 315/613/208
f 313/570/226 330/581/226 334/585/227 317/572/227
f 327/580/228 344/591/228 331/582/209 316/569/209
f 317/614/227 334/615/227 335/616/210 319/617/210
f 320/600/205 337/599/205 339/618/205 324/619/205
f 322/596/211 338/595/211 342/620/229 325/621/229
f 325/579/229 342/592/229 344/591/228 327/580/228
f 329/622/204 332/623/204 343/624/204 341/590/204 340/550/204 336/546/204 333/588/204
