# Blender 4.5.0
# www.blender.org
mtllib TrainCommon.mtl
o TrainCommon
v 1.388516 1.110000 1.705244
v 1.388516 1.004558 1.959803
v 1.388516 0.750000 2.065244
v 1.388516 0.495442 1.959803
v 1.388516 0.390000 1.705244
v 1.388516 0.495442 1.450686
v 1.388516 0.750000 1.345244
v 1.388516 1.004558 1.450686
v 1.559516 0.750000 1.705244
v 1.514516 0.921887 1.877131
v 1.514516 0.993085 1.705244
v 1.514516 0.750000 1.948329
v 1.514516 0.578113 1.877131
v 1.514516 0.506915 1.705244
v 1.514516 0.578113 1.533357
v 1.514516 0.750000 1.462159
v 1.514516 0.921887 1.533357
v 0.000000 1.210000 3.053760
v 0.000000 0.490000 3.053760
v 0.254559 0.595442 3.053760
v 0.360000 0.850000 3.053760
v 0.254559 1.104559 3.053760
v 0.000000 0.850000 3.224760
v 0.000000 1.093085 3.179760
v 0.000000 0.606915 3.179760
v 0.171887 0.678113 3.179760
v 0.243085 0.850000 3.179760
v 0.171887 1.021887 3.179760
v -1.388516 1.110000 1.705244
v -1.388516 1.004558 1.959803
v -1.388516 0.750000 2.065244
v -1.388516 0.495442 1.959803
v -1.388516 0.390000 1.705244
v -1.388516 0.495442 1.450686
v -1.388516 0.750000 1.345244
v -1.388516 1.004558 1.450686
v -1.559516 0.750000 1.705244
v -1.514516 0.921887 1.877131
v -1.514516 0.993085 1.705244
v -1.514516 0.750000 1.948329
v -1.514516 0.578113 1.877131
v -1.514516 0.506915 1.705244
v -1.514516 0.578113 1.533357
v -1.514516 0.750000 1.462159
v -1.514516 0.921887 1.533357
v -0.254559 0.595442 3.053760
v -0.360000 0.850000 3.053760
v -0.254559 1.104559 3.053760
v -0.171887 0.678113 3.179760
v -0.243085 0.850000 3.179760
v -0.171887 1.021887 3.179760
v 1.388516 1.110000 -1.705244
v 1.388516 1.004558 -1.959803
v 1.388516 0.750000 -2.065244
v 1.388516 0.495442 -1.959803
v 1.388516 0.390000 -1.705244
v 1.388516 0.495442 -1.450686
v 1.388516 0.750000 -1.345244
v 1.388516 1.004558 -1.450686
v 1.559516 0.750000 -1.705244
v 1.514516 0.921887 -1.877131
v 1.514516 0.993085 -1.705244
v 1.514516 0.750000 -1.948329
v 1.514516 0.578113 -1.877131
v 1.514516 0.506915 -1.705244
v 1.514516 0.578113 -1.533357
v 1.514516 0.750000 -1.462159
v 1.514516 0.921887 -1.533357
v 0.000000 1.210000 -3.053760
v 0.000000 0.490000 -3.053760
v 0.254559 0.595442 -3.053760
v 0.360000 0.850000 -3.053760
v 0.254559 1.104559 -3.053760
v 0.000000 0.850000 -3.224760
v 0.000000 1.093085 -3.179760
v 0.000000 0.606915 -3.179760
v 0.171887 0.678113 -3.179760
v 0.243085 0.850000 -3.179760
v 0.171887 1.021887 -3.179760
v -1.388516 1.110000 -1.705244
v -1.388516 1.004558 -1.959803
v -1.388516 0.750000 -2.065244
v -1.388516 0.495442 -1.959803
v -1.388516 0.390000 -1.705244
v -1.388516 0.495442 -1.450686
v -1.388516 0.750000 -1.345244
v -1.388516 1.004558 -1.450686
v -1.559516 0.750000 -1.705244
v -1.514516 0.921887 -1.877131
v -1.514516 0.993085 -1.705244
v -1.514516 0.750000 -1.948329
v -1.514516 0.578113 -1.877131
v -1.514516 0.506915 -1.705244
v -1.514516 0.578113 -1.533357
v -1.514516 0.750000 -1.462159
v -1.514516 0.921887 -1.533357
v -0.254559 0.595442 -3.053760
v -0.360000 0.850000 -3.053760
v -0.254559 1.104559 -3.053760
v -0.171887 0.678113 -3.179760
v -0.243085 0.850000 -3.179760
v -0.171887 1.021887 -3.179760
vn 0.8537 -0.0000 0.5208
vn 1.0000 -0.0000 -0.0000
vn 0.8537 0.5208 -0.0000
vn 0.8430 0.3804 0.3804
vn 0.8537 -0.0000 -0.5208
vn 0.8430 0.3804 -0.3804
vn 0.8430 -0.3804 0.3804
vn 0.8537 -0.5208 -0.0000
vn 0.8430 -0.3804 -0.3804
vn 0.6802 0.7330 -0.0000
vn 0.6802 0.5183 0.5183
vn 0.6802 -0.0000 0.7330
vn 0.6802 -0.5183 0.5183
vn 0.6802 -0.7330 -0.0000
vn 0.6802 -0.5183 -0.5183
vn 0.6802 -0.0000 -0.7330
vn 0.6802 0.5183 -0.5183
vn -0.0000 -0.0000 1.0000
vn 0.5208 -0.0000 0.8537
vn 0.3804 0.3804 0.8430
vn -0.0000 0.5208 0.8537
vn -0.0000 -0.5208 0.8537
vn 0.3804 -0.3804 0.8430
vn -0.0000 -0.7330 0.6802
vn 0.5183 -0.5183 0.6802
vn 0.7330 -0.0000 0.6802
vn 0.5183 0.5183 0.6802
vn -0.0000 0.7330 0.6802
vn -0.8537 -0.0000 0.5208
vn -0.8430 0.3804 0.3804
vn -0.8537 0.5208 -0.0000
vn -1.0000 -0.0000 -0.0000
vn -0.8430 0.3804 -0.3804
vn -0.8537 -0.0000 -0.5208
vn -0.8430 -0.3804 0.3804
vn -0.8537 -0.5208 -0.0000
vn -0.8430 -0.3804 -0.3804
vn -0.6802 0.5183 0.5183
vn -0.6802 0.7330 -0.0000
vn -0.6802 -0.0000 0.7330
vn -0.6802 -0.5183 0.5183
vn -0.6802 -0.7330 -0.0000
vn -0.6802 -0.5183 -0.5183
vn -0.6802 -0.0000 -0.7330
vn -0.6802 0.5183 -0.5183
vn -0.3804 0.3804 0.8430
vn -0.5208 -0.0000 0.8537
vn -0.3804 -0.3804 0.8430
vn -0.5183 -0.5183 0.6802
vn -0.7330 -0.0000 0.6802
vn -0.5183 0.5183 0.6802
vn -0.0000 -0.0000 -1.0000
vn -0.0000 0.5208 -0.8537
vn 0.3804 0.3804 -0.8430
vn 0.5208 -0.0000 -0.8537
vn -0.0000 -0.5208 -0.8537
vn 0.3804 -0.3804 -0.8430
vn 0.5183 -0.5183 -0.6802
vn -0.0000 -0.7330 -0.6802
vn 0.7330 -0.0000 -0.6802
vn 0.5183 0.5183 -0.6802
vn -0.0000 0.7330 -0.6802
vn -0.5208 -0.0000 -0.8537
vn -0.3804 0.3804 -0.8430
vn -0.3804 -0.3804 -0.8430
vn -0.5183 -0.5183 -0.6802
vn -0.7330 -0.0000 -0.6802
vn -0.5183 0.5183 -0.6802
vt 0.500440 0.768997
vt 0.500440 0.622147
vt 0.646997 0.622147
vt 0.604896 0.726647
vt 0.500440 0.474051
vt 0.604472 0.517964
vt 0.397089 0.725347
vt 0.350327 0.622147
vt 0.396485 0.518236
vt 0.752261 0.622147
vt 0.677984 0.799735
vt 0.500440 0.874244
vt 0.320928 0.801509
vt 0.247104 0.622147
vt 0.320305 0.442056
vt 0.500440 0.368702
vt 0.678923 0.443513
vt 0.498837 0.621798
vt 0.501994 0.475789
vt 0.606427 0.518306
vt 0.646463 0.624570
vt 0.351377 0.618016
vt 0.397089 0.514863
vt 0.245973 0.618920
vt 0.322084 0.440779
vt 0.502784 0.368023
vt 0.680164 0.445944
vt 0.751820 0.624941
s 1
usemtl Magnet
f 12/1/1 9/2/2 11/3/3 10/4/4
f 9/2/2 16/5/5 17/6/6 11/3/3
f 13/7/7 14/8/8 9/2/2 12/1/1
f 14/8/8 15/9/9 16/5/5 9/2/2
f 10/4/4 11/3/3 1/10/10 2/11/11
f 12/1/1 10/4/4 2/11/11 3/12/12
f 13/7/7 12/1/1 3/12/12 4/13/13
f 14/8/8 13/7/7 4/13/13 5/14/14
f 15/9/9 14/8/8 5/14/14 6/15/15
f 16/5/5 15/9/9 6/15/15 7/16/16
f 17/6/6 16/5/5 7/16/16 8/17/17
f 11/3/3 17/6/6 8/17/17 1/10/10
f 23/18/18 27/19/19 28/20/20 24/21/21
f 25/22/22 26/23/23 27/19/19 23/18/18
f 26/23/23 25/22/22 19/24/24 20/25/25
f 27/19/19 26/23/23 20/25/25 21/26/26
f 28/20/20 27/19/19 21/26/26 22/27/27
f 24/21/21 28/20/20 22/27/27 18/28/28
f 40/1/29 38/4/30 39/3/31 37/2/32
f 37/2/32 39/3/31 45/6/33 44/5/34
f 41/7/35 40/1/29 37/2/32 42/8/36
f 42/8/36 37/2/32 44/5/34 43/9/37
f 38/4/30 30/11/38 29/10/39 39/3/31
f 40/1/29 31/12/40 30/11/38 38/4/30
f 41/7/35 32/13/41 31/12/40 40/1/29
f 42/8/36 33/14/42 32/13/41 41/7/35
f 43/9/37 34/15/43 33/14/42 42/8/36
f 44/5/34 35/16/44 34/15/43 43/9/37
f 45/6/33 36/17/45 35/16/44 44/5/34
f 39/3/31 29/10/39 36/17/45 45/6/33
f 23/18/18 24/21/21 51/20/46 50/19/47
f 25/22/22 23/18/18 50/19/47 49/23/48
f 49/23/48 46/25/49 19/24/24 25/22/22
f 50/19/47 47/26/50 46/25/49 49/23/48
f 51/20/46 48/27/51 47/26/50 50/19/47
f 24/21/21 18/28/28 48/27/51 51/20/46
f 63/1/5 61/4/6 62/3/3 60/2/2
f 60/2/2 62/3/3 68/6/4 67/5/1
f 64/7/9 63/1/5 60/2/2 65/8/8
f 65/8/8 60/2/2 67/5/1 66/9/7
f 61/4/6 53/11/17 52/10/10 62/3/3
f 63/1/5 54/12/16 53/11/17 61/4/6
f 64/7/9 55/13/15 54/12/16 63/1/5
f 65/8/8 56/14/14 55/13/15 64/7/9
f 66/9/7 57/15/13 56/14/14 65/8/8
f 67/5/1 58/16/12 57/15/13 66/9/7
f 68/6/4 59/17/11 58/16/12 67/5/1
f 62/3/3 52/10/10 59/17/11 68/6/4
f 74/18/52 75/21/53 79/20/54 78/19/55
f 76/22/56 74/18/52 78/19/55 77/23/57
f 77/23/57 71/25/58 70/24/59 76/22/56
f 78/19/55 72/26/60 71/25/58 77/23/57
f 79/20/54 73/27/61 72/26/60 78/19/55
f 75/21/53 69/28/62 73/27/61 79/20/54
f 91/1/34 88/2/32 90/3/31 89/4/33
f 88/2/32 95/5/29 96/6/30 90/3/31
f 92/7/37 93/8/36 88/2/32 91/1/34
f 93/8/36 94/9/35 95/5/29 88/2/32
f 89/4/33 90/3/31 80/10/39 81/11/45
f 91/1/34 89/4/33 81/11/45 82/12/44
f 92/7/37 91/1/34 82/12/44 83/13/43
f 93/8/36 92/7/37 83/13/43 84/14/42
f 94/9/35 93/8/36 84/14/42 85/15/41
f 95/5/29 94/9/35 85/15/41 86/16/40
f 96/6/30 95/5/29 86/16/40 87/17/38
f 90/3/31 96/6/30 87/17/38 80/10/39
f 74/18/52 101/19/63 102/20/64 75/21/53
f 76/22/56 100/23/65 101/19/63 74/18/52
f 100/23/65 76/22/56 70/24/59 97/25/66
f 101/19/63 100/23/65 97/25/66 98/26/67
f 102/20/64 101/19/63 98/26/67 99/27/68
f 75/21/53 102/20/64 99/27/68 69/28/62
o TrainCommon.001
v 1.333457 0.884306 1.375756
v 1.333457 0.750000 1.349041
v 1.333457 0.998166 1.451834
v 1.333457 1.074244 1.565694
v 1.333457 1.100959 1.700000
v 1.333457 1.074244 1.834306
v 1.333457 0.998166 1.948166
v 1.333457 0.884306 2.024244
v 1.333457 0.750000 2.050959
v 1.333457 0.615694 2.024244
v 1.333457 0.501834 1.948166
v 1.333457 0.425756 1.834306
v 1.333458 0.399041 1.700000
v 1.333457 0.425756 1.565694
v 1.333457 0.501834 1.451834
v 1.333457 0.615694 1.375756
v 1.094500 0.750000 1.010383
v 1.000000 0.750000 1.143382
v 1.000000 0.963008 1.185752
v 1.094500 1.013905 1.062877
v 1.000000 1.143588 1.306412
v 1.000000 1.264248 1.486992
v 1.094500 1.387123 1.436095
v 1.000000 1.306618 1.700000
v 1.000000 1.264248 1.913008
v 1.000000 1.143588 2.093589
v 1.094500 1.237633 2.187633
v 1.000000 0.963008 2.214248
v 1.094500 1.013905 2.337123
v 1.000000 0.750000 2.256618
v 1.094500 0.750000 2.389617
v 1.000000 0.536992 2.214248
v 1.094500 0.486095 2.337123
v 1.000000 0.356412 2.093589
v 1.000000 0.235752 1.913009
v 1.094500 0.112877 1.963905
v 1.000000 0.193382 1.700000
v 1.094500 0.060383 1.700000
v 1.000000 0.235752 1.486992
v 1.094500 0.112877 1.436095
v 1.000000 0.356412 1.306412
v 1.094500 0.262367 1.212367
v 1.000000 0.536992 1.185752
v 1.094500 0.486095 1.062877
v 1.321001 1.237831 2.187831
v 1.094500 1.387123 1.963905
v 1.321001 1.387383 1.964013
v 1.321001 0.112618 1.435988
v 1.321001 0.485987 1.062618
v 1.321001 0.750000 2.389898
v 1.321001 1.014012 1.062618
v 1.321001 0.750000 1.010102
v 1.321001 1.237831 1.212169
v 1.094500 1.237633 1.212367
v 1.210000 1.269723 1.180277
v 1.094500 0.262367 2.187633
v 1.321001 1.387383 1.435988
v 1.210000 1.485000 1.700000
v 1.321001 0.112618 1.964013
v 1.210000 1.429051 1.981272
v 1.321001 1.439898 1.700000
v 1.094500 1.439617 1.700000
v 1.321001 0.060102 1.700000
v 1.210000 0.015000 1.700000
v 1.210000 1.269723 2.219723
v 1.399480 0.963471 1.184635
v 1.399480 0.750000 1.142172
v 1.210000 1.031272 2.379051
v 1.210000 0.750000 0.965000
v 1.399480 1.144444 1.305556
v 1.210000 1.031272 1.020949
v 1.399480 1.265365 1.486529
v 1.210000 0.230277 2.219723
v 1.399480 1.307828 1.700000
v 1.210000 0.468728 2.379051
v 1.399480 1.265365 1.913471
v 1.210000 0.750000 2.435000
v 1.399480 1.144444 2.094444
v 1.321001 1.014012 2.337383
v 1.399480 0.963471 2.215366
v 1.210000 0.468728 1.020949
v 1.399480 0.750000 2.257828
v 1.321001 0.485987 2.337383
v 1.399480 0.536529 2.215366
v 1.321001 0.262169 2.187831
v 1.399480 0.355556 2.094444
v 1.210000 0.230277 1.180277
v 1.399480 0.234635 1.913471
v 1.210000 0.070949 1.418728
v 1.399480 0.192172 1.700000
v 1.210000 0.070949 1.981272
v 1.399480 0.234635 1.486529
v 1.321001 0.262169 1.212169
v 1.399480 0.355556 1.305556
v 1.210000 1.429051 1.418728
v 1.399480 0.536529 1.184635
v 1.388516 1.110000 1.705244
v 1.388516 1.004558 1.959803
v 1.388516 0.750000 2.065244
v 1.388516 0.495442 1.959803
v 1.388516 0.390000 1.705244
v 1.388516 0.495442 1.450686
v 1.388516 0.750000 1.345244
v 1.388516 1.004558 1.450686
v 1.388516 1.030014 1.985259
v 1.388516 1.146000 1.705244
v 1.388516 0.750000 2.101244
v 1.388516 0.469986 1.985258
v 1.388516 0.354000 1.705244
v 1.388516 0.469986 1.425230
v 1.388516 0.750000 1.309244
v 1.388516 1.030014 1.425230
v 1.288516 1.030014 1.985259
v 1.288516 1.146000 1.705244
v 1.288516 0.750000 2.101244
v 1.288516 0.469986 1.985258
v 1.288516 0.354000 1.705244
v 1.288516 0.469986 1.425230
v 1.288516 0.750000 1.309244
v 1.288516 1.030014 1.425230
v 0.000000 1.210000 3.053760
v 0.000000 0.490000 3.053760
v 0.254559 0.595442 3.053760
v 0.360000 0.850000 3.053760
v 0.254559 1.104559 3.053760
v 0.000000 1.246000 3.053760
v 0.000000 0.454000 3.053760
v 0.280014 0.569986 3.053760
v 0.396000 0.850000 3.053760
v 0.280014 1.130014 3.053760
v 0.000000 1.246000 2.953760
v 0.000000 0.454000 2.953760
v 0.280014 0.569986 2.953760
v 0.396000 0.850000 2.953760
v 0.280014 1.130014 2.953760
v -1.333457 0.884306 1.375756
v -1.333457 0.750000 1.349041
v -1.333457 0.998166 1.451834
v -1.333457 1.074244 1.565694
v -1.333457 1.100959 1.700000
v -1.333457 1.074244 1.834306
v -1.333457 0.998166 1.948166
v -1.333457 0.884306 2.024244
v -1.333457 0.750000 2.050959
v -1.333457 0.615694 2.024244
v -1.333457 0.501834 1.948166
v -1.333457 0.425756 1.834306
v -1.333458 0.399041 1.700000
v -1.333457 0.425756 1.565694
v -1.333457 0.501834 1.451834
v -1.333457 0.615694 1.375756
v -1.094500 0.750000 1.010383
v -1.000000 0.750000 1.143382
v -1.000000 0.963008 1.185752
v -1.094500 1.013905 1.062877
v -1.000000 1.143588 1.306412
v -1.000000 1.264248 1.486992
v -1.094500 1.387123 1.436095
v -1.000000 1.306618 1.700000
v -1.000000 1.264248 1.913008
v -1.000000 1.143588 2.093589
v -1.094500 1.237633 2.187633
v -1.000000 0.963008 2.214248
v -1.094500 1.013905 2.337123
v -1.000000 0.750000 2.256618
v -1.094500 0.750000 2.389617
v -1.000000 0.536992 2.214248
v -1.094500 0.486095 2.337123
v -1.000000 0.356412 2.093589
v -1.000000 0.235752 1.913009
v -1.094500 0.112877 1.963905
v -1.000000 0.193382 1.700000
v -1.094500 0.060383 1.700000
v -1.000000 0.235752 1.486992
v -1.094500 0.112877 1.436095
v -1.000000 0.356412 1.306412
v -1.094500 0.262367 1.212367
v -1.000000 0.536992 1.185752
v -1.094500 0.486095 1.062877
v -1.321001 1.237831 2.187831
v -1.094500 1.387123 1.963905
v -1.321001 1.387383 1.964013
v -1.321001 0.112618 1.435988
v -1.321001 0.485987 1.062618
v -1.321001 0.750000 2.389898
v -1.321001 1.014012 1.062618
v -1.321001 0.750000 1.010102
v -1.321001 1.237831 1.212169
v -1.094500 1.237633 1.212367
v -1.210000 1.269723 1.180277
v -1.094500 0.262367 2.187633
v -1.321001 1.387383 1.435988
v -1.210000 1.485000 1.700000
v -1.321001 0.112618 1.964013
v -1.210000 1.429051 1.981272
v -1.321001 1.439898 1.700000
v -1.094500 1.439617 1.700000
v -1.321001 0.060102 1.700000
v -1.210000 0.015000 1.700000
v -1.210000 1.269723 2.219723
v -1.399480 0.963471 1.184635
v -1.399480 0.750000 1.142172
v -1.210000 1.031272 2.379051
v -1.210000 0.750000 0.965000
v -1.399480 1.144444 1.305556
v -1.210000 1.031272 1.020949
v -1.399480 1.265365 1.486529
v -1.210000 0.230277 2.219723
v -1.399480 1.307828 1.700000
v -1.210000 0.468728 2.379051
v -1.399480 1.265365 1.913471
v -1.210000 0.750000 2.435000
v -1.399480 1.144444 2.094444
v -1.321001 1.014012 2.337383
v -1.399480 0.963471 2.215366
v -1.210000 0.468728 1.020949
v -1.399480 0.750000 2.257828
v -1.321001 0.485987 2.337383
v -1.399480 0.536529 2.215366
v -1.321001 0.262169 2.187831
v -1.399480 0.355556 2.094444
v -1.210000 0.230277 1.180277
v -1.399480 0.234635 1.913471
v -1.210000 0.070949 1.418728
v -1.399480 0.192172 1.700000
v -1.210000 0.070949 1.981272
v -1.399480 0.234635 1.486529
v -1.321001 0.262169 1.212169
v -1.399480 0.355556 1.305556
v -1.210000 1.429051 1.418728
v -1.399480 0.536529 1.184635
v -1.388516 1.110000 1.705244
v -1.388516 1.004558 1.959803
v -1.388516 0.750000 2.065244
v -1.388516 0.495442 1.959803
v -1.388516 0.390000 1.705244
v -1.388516 0.495442 1.450686
v -1.388516 0.750000 1.345244
v -1.388516 1.004558 1.450686
v -1.388516 1.030014 1.985259
v -1.388516 1.146000 1.705244
v -1.388516 0.750000 2.101244
v -1.388516 0.469986 1.985258
v -1.388516 0.354000 1.705244
v -1.388516 0.469986 1.425230
v -1.388516 0.750000 1.309244
v -1.388516 1.030014 1.425230
v -1.288516 1.030014 1.985259
v -1.288516 1.146000 1.705244
v -1.288516 0.750000 2.101244
v -1.288516 0.469986 1.985258
v -1.288516 0.354000 1.705244
v -1.288516 0.469986 1.425230
v -1.288516 0.750000 1.309244
v -1.288516 1.030014 1.425230
v -0.254559 0.595442 3.053760
v -0.360000 0.850000 3.053760
v -0.254559 1.104559 3.053760
v -0.280014 0.569986 3.053760
v -0.396000 0.850000 3.053760
v -0.280014 1.130014 3.053760
v -0.280014 0.569986 2.953760
v -0.396000 0.850000 2.953760
v -0.280014 1.130014 2.953760
v 1.333457 0.884306 -1.375756
v 1.333457 0.750000 -1.349041
v 1.333457 0.998166 -1.451834
v 1.333457 1.074244 -1.565694
v 1.333457 1.100959 -1.700000
v 1.333457 1.074244 -1.834306
v 1.333457 0.998166 -1.948166
v 1.333457 0.884306 -2.024244
v 1.333457 0.750000 -2.050959
v 1.333457 0.615694 -2.024244
v 1.333457 0.501834 -1.948166
v 1.333457 0.425756 -1.834306
v 1.333458 0.399041 -1.700000
v 1.333457 0.425756 -1.565694
v 1.333457 0.501834 -1.451834
v 1.333457 0.615694 -1.375756
v 1.094500 0.750000 -1.010383
v 1.000000 0.750000 -1.143382
v 1.000000 0.963008 -1.185752
v 1.094500 1.013905 -1.062877
v 1.000000 1.143588 -1.306412
v 1.000000 1.264248 -1.486992
v 1.094500 1.387123 -1.436095
v 1.000000 1.306618 -1.700000
v 1.000000 1.264248 -1.913008
v 1.000000 1.143588 -2.093589
v 1.094500 1.237633 -2.187633
v 1.000000 0.963008 -2.214248
v 1.094500 1.013905 -2.337123
v 1.000000 0.750000 -2.256618
v 1.094500 0.750000 -2.389617
v 1.000000 0.536992 -2.214248
v 1.094500 0.486095 -2.337123
v 1.000000 0.356412 -2.093589
v 1.000000 0.235752 -1.913009
v 1.094500 0.112877 -1.963905
v 1.000000 0.193382 -1.700000
v 1.094500 0.060383 -1.700000
v 1.000000 0.235752 -1.486992
v 1.094500 0.112877 -1.436095
v 1.000000 0.356412 -1.306412
v 1.094500 0.262367 -1.212367
v 1.000000 0.536992 -1.185752
v 1.094500 0.486095 -1.062877
v 1.321001 1.237831 -2.187831
v 1.094500 1.387123 -1.963905
v 1.321001 1.387383 -1.964013
v 1.321001 0.112618 -1.435988
v 1.321001 0.485987 -1.062618
v 1.321001 0.750000 -2.389898
v 1.321001 1.014012 -1.062618
v 1.321001 0.750000 -1.010102
v 1.321001 1.237831 -1.212169
v 1.094500 1.237633 -1.212367
v 1.210000 1.269723 -1.180277
v 1.094500 0.262367 -2.187633
v 1.321001 1.387383 -1.435988
v 1.210000 1.485000 -1.700000
v 1.321001 0.112618 -1.964013
v 1.210000 1.429051 -1.981272
v 1.321001 1.439898 -1.700000
v 1.094500 1.439617 -1.700000
v 1.321001 0.060102 -1.700000
v 1.210000 0.015000 -1.700000
v 1.210000 1.269723 -2.219723
v 1.399480 0.963471 -1.184635
v 1.399480 0.750000 -1.142172
v 1.210000 1.031272 -2.379051
v 1.210000 0.750000 -0.965000
v 1.399480 1.144444 -1.305556
v 1.210000 1.031272 -1.020949
v 1.399480 1.265365 -1.486529
v 1.210000 0.230277 -2.219723
v 1.399480 1.307828 -1.700000
v 1.210000 0.468728 -2.379051
v 1.399480 1.265365 -1.913471
v 1.210000 0.750000 -2.435000
v 1.399480 1.144444 -2.094444
v 1.321001 1.014012 -2.337383
v 1.399480 0.963471 -2.215366
v 1.210000 0.468728 -1.020949
v 1.399480 0.750000 -2.257828
v 1.321001 0.485987 -2.337383
v 1.399480 0.536529 -2.215366
v 1.321001 0.262169 -2.187831
v 1.399480 0.355556 -2.094444
v 1.210000 0.230277 -1.180277
v 1.399480 0.234635 -1.913471
v 1.210000 0.070949 -1.418728
v 1.399480 0.192172 -1.700000
v 1.210000 0.070949 -1.981272
v 1.399480 0.234635 -1.486529
v 1.321001 0.262169 -1.212169
v 1.399480 0.355556 -1.305556
v 1.210000 1.429051 -1.418728
v 1.399480 0.536529 -1.184635
v 1.388516 1.110000 -1.705244
v 1.388516 1.004558 -1.959803
v 1.388516 0.750000 -2.065244
v 1.388516 0.495442 -1.959803
v 1.388516 0.390000 -1.705244
v 1.388516 0.495442 -1.450686
v 1.388516 0.750000 -1.345244
v 1.388516 1.004558 -1.450686
v 1.388516 1.030014 -1.985259
v 1.388516 1.146000 -1.705244
v 1.388516 0.750000 -2.101244
v 1.388516 0.469986 -1.985258
v 1.388516 0.354000 -1.705244
v 1.388516 0.469986 -1.425230
v 1.388516 0.750000 -1.309244
v 1.388516 1.030014 -1.425230
v 1.288516 1.030014 -1.985259
v 1.288516 1.146000 -1.705244
v 1.288516 0.750000 -2.101244
v 1.288516 0.469986 -1.985258
v 1.288516 0.354000 -1.705244
v 1.288516 0.469986 -1.425230
v 1.288516 0.750000 -1.309244
v 1.288516 1.030014 -1.425230
v 0.000000 1.210000 -3.053760
v 0.000000 0.490000 -3.053760
v 0.254559 0.595442 -3.053760
v 0.360000 0.850000 -3.053760
v 0.254559 1.104559 -3.053760
v 0.000000 1.246000 -3.053760
v 0.000000 0.454000 -3.053760
v 0.280014 0.569986 -3.053760
v 0.396000 0.850000 -3.053760
v 0.280014 1.130014 -3.053760
v 0.000000 1.246000 -2.953760
v 0.000000 0.454000 -2.953760
v 0.280014 0.569986 -2.953760
v 0.396000 0.850000 -2.953760
v 0.280014 1.130014 -2.953760
v -1.333457 0.884306 -1.375756
v -1.333457 0.750000 -1.349041
v -1.333457 0.998166 -1.451834
v -1.333457 1.074244 -1.565694
v -1.333457 1.100959 -1.700000
v -1.333457 1.074244 -1.834306
v -1.333457 0.998166 -1.948166
v -1.333457 0.884306 -2.024244
v -1.333457 0.750000 -2.050959
v -1.333457 0.615694 -2.024244
v -1.333457 0.501834 -1.948166
v -1.333457 0.425756 -1.834306
v -1.333458 0.399041 -1.700000
v -1.333457 0.425756 -1.565694
v -1.333457 0.501834 -1.451834
v -1.333457 0.615694 -1.375756
v -1.094500 0.750000 -1.010383
v -1.000000 0.750000 -1.143382
v -1.000000 0.963008 -1.185752
v -1.094500 1.013905 -1.062877
v -1.000000 1.143588 -1.306412
v -1.000000 1.264248 -1.486992
v -1.094500 1.387123 -1.436095
v -1.000000 1.306618 -1.700000
v -1.000000 1.264248 -1.913008
v -1.000000 1.143588 -2.093589
v -1.094500 1.237633 -2.187633
v -1.000000 0.963008 -2.214248
v -1.094500 1.013905 -2.337123
v -1.000000 0.750000 -2.256618
v -1.094500 0.750000 -2.389617
v -1.000000 0.536992 -2.214248
v -1.094500 0.486095 -2.337123
v -1.000000 0.356412 -2.093589
v -1.000000 0.235752 -1.913009
v -1.094500 0.112877 -1.963905
v -1.000000 0.193382 -1.700000
v -1.094500 0.060383 -1.700000
v -1.000000 0.235752 -1.486992
v -1.094500 0.112877 -1.436095
v -1.000000 0.356412 -1.306412
v -1.094500 0.262367 -1.212367
v -1.000000 0.536992 -1.185752
v -1.094500 0.486095 -1.062877
v -1.321001 1.237831 -2.187831
v -1.094500 1.387123 -1.963905
v -1.321001 1.387383 -1.964013
v -1.321001 0.112618 -1.435988
v -1.321001 0.485987 -1.062618
v -1.321001 0.750000 -2.389898
v -1.321001 1.014012 -1.062618
v -1.321001 0.750000 -1.010102
v -1.321001 1.237831 -1.212169
v -1.094500 1.237633 -1.212367
v -1.210000 1.269723 -1.180277
v -1.094500 0.262367 -2.187633
v -1.321001 1.387383 -1.435988
v -1.210000 1.485000 -1.700000
v -1.321001 0.112618 -1.964013
v -1.210000 1.429051 -1.981272
v -1.321001 1.439898 -1.700000
v -1.094500 1.439617 -1.700000
v -1.321001 0.060102 -1.700000
v -1.210000 0.015000 -1.700000
v -1.210000 1.269723 -2.219723
v -1.399480 0.963471 -1.184635
v -1.399480 0.750000 -1.142172
v -1.210000 1.031272 -2.379051
v -1.210000 0.750000 -0.965000
v -1.399480 1.144444 -1.305556
v -1.210000 1.031272 -1.020949
v -1.399480 1.265365 -1.486529
v -1.210000 0.230277 -2.219723
v -1.399480 1.307828 -1.700000
v -1.210000 0.468728 -2.379051
v -1.399480 1.265365 -1.913471
v -1.210000 0.750000 -2.435000
v -1.399480 1.144444 -2.094444
v -1.321001 1.014012 -2.337383
v -1.399480 0.963471 -2.215366
v -1.210000 0.468728 -1.020949
v -1.399480 0.750000 -2.257828
v -1.321001 0.485987 -2.337383
v -1.399480 0.536529 -2.215366
v -1.321001 0.262169 -2.187831
v -1.399480 0.355556 -2.094444
v -1.210000 0.230277 -1.180277
v -1.399480 0.234635 -1.913471
v -1.210000 0.070949 -1.418728
v -1.399480 0.192172 -1.700000
v -1.210000 0.070949 -1.981272
v -1.399480 0.234635 -1.486529
v -1.321001 0.262169 -1.212169
v -1.399480 0.355556 -1.305556
v -1.210000 1.429051 -1.418728
v -1.399480 0.536529 -1.184635
v -1.388516 1.110000 -1.705244
v -1.388516 1.004558 -1.959803
v -1.388516 0.750000 -2.065244
v -1.388516 0.495442 -1.959803
v -1.388516 0.390000 -1.705244
v -1.388516 0.495442 -1.450686
v -1.388516 0.750000 -1.345244
v -1.388516 1.004558 -1.450686
v -1.388516 1.030014 -1.985259
v -1.388516 1.146000 -1.705244
v -1.388516 0.750000 -2.101244
v -1.388516 0.469986 -1.985258
v -1.388516 0.354000 -1.705244
v -1.388516 0.469986 -1.425230
v -1.388516 0.750000 -1.309244
v -1.388516 1.030014 -1.425230
v -1.288516 1.030014 -1.985259
v -1.288516 1.146000 -1.705244
v -1.288516 0.750000 -2.101244
v -1.288516 0.469986 -1.985258
v -1.288516 0.354000 -1.705244
v -1.288516 0.469986 -1.425230
v -1.288516 0.750000 -1.309244
v -1.288516 1.030014 -1.425230
v -0.254559 0.595442 -3.053760
v -0.360000 0.850000 -3.053760
v -0.254559 1.104559 -3.053760
v -0.280014 0.569986 -3.053760
v -0.396000 0.850000 -3.053760
v -0.280014 1.130014 -3.053760
v -0.280014 0.569986 -2.953760
v -0.396000 0.850000 -2.953760
v -0.280014 1.130014 -2.953760
vn -0.5994 0.3063 -0.7395
vn -0.5994 -0.0000 -0.8005
vn -0.8152 -0.0000 -0.5792
vn -0.8152 0.2217 -0.5351
vn -0.5994 0.5660 -0.5660
vn -0.8152 0.4096 -0.4096
vn -0.5994 0.7395 -0.3063
vn -0.8152 0.5351 -0.2217
vn -0.5994 0.8005 -0.0000
vn -0.8152 0.5792 -0.0000
vn -0.5994 0.7395 0.3063
vn -0.8152 0.5351 0.2217
vn -0.5994 0.5660 0.5660
vn -0.8152 0.4096 0.4096
vn -0.5994 0.3063 0.7395
vn -0.8152 0.2217 0.5351
vn -0.5994 -0.0000 0.8005
vn -0.8152 -0.0000 0.5792
vn -0.5994 -0.3063 0.7395
vn -0.8152 -0.2217 0.5351
vn -0.5994 -0.5660 0.5660
vn -0.8152 -0.4096 0.4096
vn -0.5994 -0.7395 0.3063
vn -0.8152 -0.5351 0.2217
vn -0.5994 -0.8005 -0.0000
vn -0.8152 -0.5792 -0.0000
vn -0.5994 -0.7395 -0.3063
vn -0.8152 -0.5351 -0.2217
vn -0.5994 -0.5660 -0.5660
vn -0.8152 -0.4096 -0.4096
vn -0.5994 -0.3063 -0.7395
vn -0.8152 -0.2217 -0.5351
vn 0.9866 0.0625 -0.1508
vn 0.9866 -0.0000 -0.1633
vn 0.6331 -0.0000 -0.7741
vn 0.6331 0.2962 -0.7152
vn 0.9866 0.1154 -0.1154
vn 0.6331 0.5474 -0.5474
vn 0.9866 0.1508 -0.0625
vn 0.6331 0.7152 -0.2962
vn 0.9866 0.1633 -0.0000
vn 0.6331 0.7741 -0.0000
vn 0.9866 0.1508 0.0625
vn 0.6331 0.7152 0.2962
vn 0.9866 0.1154 0.1154
vn 0.6331 0.5474 0.5474
vn 0.9866 0.0625 0.1508
vn 0.6331 0.2962 0.7152
vn 0.9866 -0.0000 0.1633
vn 0.6331 -0.0000 0.7741
vn 0.9866 -0.0625 0.1508
vn 0.6331 -0.2962 0.7152
vn 0.9866 -0.1154 0.1154
vn 0.6331 -0.5474 0.5474
vn 0.9866 -0.1508 0.0625
vn 0.6331 -0.7152 0.2962
vn 0.9866 -0.1633 -0.0000
vn 0.6331 -0.7741 -0.0000
vn 0.9866 -0.1508 -0.0625
vn 0.6331 -0.7152 -0.2962
vn 0.9866 -0.1154 -0.1154
vn 0.6331 -0.5474 -0.5474
vn 0.9866 -0.0625 -0.1508
vn 0.6331 -0.2962 -0.7152
vn 0.0055 -0.9239 -0.3827
vn 0.0055 -1.0000 -0.0000
vn 0.0055 0.9239 0.3827
vn 0.0055 1.0000 -0.0000
vn 0.0055 -0.9239 0.3827
vn 0.0055 0.9239 -0.3827
vn 0.0055 -0.7071 0.7071
vn 0.0055 0.7071 -0.7071
vn 0.0055 -0.3827 0.9239
vn 0.0055 0.3827 -0.9239
vn 0.0055 -0.0000 1.0000
vn 0.0055 -0.0000 -1.0000
vn 0.0055 -0.3827 -0.9239
vn 0.0055 0.3827 0.9239
vn 0.0055 -0.7071 -0.7071
vn 0.0055 0.7071 0.7071
vn 0.9527 -0.1164 0.2809
vn 0.9527 -0.0000 0.3040
vn 0.9527 -0.2150 0.2150
vn 0.9527 0.1164 0.2809
vn 0.9527 -0.2809 0.1164
vn 0.9527 -0.3040 -0.0000
vn 0.9527 -0.2809 -0.1164
vn 0.9527 -0.2150 -0.2150
vn 0.9527 -0.1164 -0.2809
vn 0.9527 -0.0000 -0.3040
vn 0.9527 0.1164 -0.2809
vn 0.9527 0.2150 -0.2150
vn 0.9527 0.2809 -0.1164
vn 0.9527 0.3040 -0.0000
vn 0.9527 0.2809 0.1164
vn 0.9527 0.2150 0.2150
vn 1.0000 -0.0000 -0.0000
vn 0.6302 -0.0000 -0.7764
vn 0.6302 0.5490 -0.5490
vn 0.6302 -0.7764 -0.0000
vn 0.6302 -0.5490 -0.5490
vn 0.6302 -0.0000 0.7764
vn 0.6302 -0.5490 0.5490
vn 0.6302 0.7764 -0.0000
vn 0.6302 0.5490 0.5490
vn -0.0000 1.0000 -0.0000
vn -0.0000 0.7071 0.7071
vn -0.0000 -0.0000 -1.0000
vn -0.0000 0.7071 -0.7071
vn -0.0000 -1.0000 -0.0000
vn -0.0000 -0.7071 -0.7071
vn -0.0000 -0.0000 1.0000
vn -0.0000 -0.7071 0.7071
vn 0.7764 -0.0000 0.6302
vn 0.5490 0.5490 0.6302
vn -0.0000 -0.7764 0.6303
vn 0.5490 -0.5490 0.6302
vn -0.0000 0.7764 0.6302
vn 0.7071 0.7071 -0.0000
vn 0.7071 -0.7071 -0.0000
vn 0.5994 0.3063 -0.7395
vn 0.8152 0.2217 -0.5351
vn 0.8152 -0.0000 -0.5792
vn 0.5994 -0.0000 -0.8005
vn 0.5994 0.5660 -0.5660
vn 0.8152 0.4096 -0.4096
vn 0.5994 0.7395 -0.3063
vn 0.8152 0.5351 -0.2217
vn 0.5994 0.8005 -0.0000
vn 0.8152 0.5792 -0.0000
vn 0.5994 0.7395 0.3063
vn 0.8152 0.5351 0.2217
vn 0.5994 0.5660 0.5660
vn 0.8152 0.4096 0.4096
vn 0.5994 0.3063 0.7395
vn 0.8152 0.2217 0.5351
vn 0.5994 -0.0000 0.8005
vn 0.8152 -0.0000 0.5792
vn 0.5994 -0.3063 0.7395
vn 0.8152 -0.2217 0.5351
vn 0.5994 -0.5660 0.5660
vn 0.8152 -0.4096 0.4096
vn 0.5994 -0.7395 0.3063
vn 0.8152 -0.5351 0.2217
vn 0.5994 -0.8005 -0.0000
vn 0.8152 -0.5792 -0.0000
vn 0.5994 -0.7395 -0.3063
vn 0.8152 -0.5351 -0.2217
vn 0.5994 -0.5660 -0.5660
vn 0.8152 -0.4096 -0.4096
vn 0.5994 -0.3063 -0.7395
vn 0.8152 -0.2217 -0.5351
vn -0.9866 0.0625 -0.1508
vn -0.6331 0.2962 -0.7152
vn -0.6331 -0.0000 -0.7741
vn -0.9866 -0.0000 -0.1633
vn -0.9866 0.1154 -0.1154
vn -0.6331 0.5474 -0.5474
vn -0.9866 0.1508 -0.0625
vn -0.6331 0.7152 -0.2962
vn -0.9866 0.1633 -0.0000
vn -0.6331 0.7741 -0.0000
vn -0.9866 0.1508 0.0625
vn -0.6331 0.7152 0.2962
vn -0.9866 0.1154 0.1154
vn -0.6331 0.5474 0.5474
vn -0.9866 0.0625 0.1508
vn -0.6331 0.2962 0.7152
vn -0.9866 -0.0000 0.1633
vn -0.6331 -0.0000 0.7741
vn -0.9866 -0.0625 0.1508
vn -0.6331 -0.2962 0.7152
vn -0.9866 -0.1154 0.1154
vn -0.6331 -0.5474 0.5474
vn -0.9866 -0.1508 0.0625
vn -0.6331 -0.7152 0.2962
vn -0.9866 -0.1633 -0.0000
vn -0.6331 -0.7741 -0.0000
vn -0.9866 -0.1508 -0.0625
vn -0.6331 -0.7152 -0.2962
vn -0.9866 -0.1154 -0.1154
vn -0.6331 -0.5474 -0.5474
vn -0.9866 -0.0625 -0.1508
vn -0.6331 -0.2962 -0.7152
vn -0.0055 -0.9239 -0.3827
vn -0.0055 -1.0000 -0.0000
vn -0.0055 0.9239 0.3827
vn -0.0055 1.0000 -0.0000
vn -0.0055 -0.9239 0.3827
vn -0.0055 0.9239 -0.3827
vn -0.0055 -0.7071 0.7071
vn -0.0055 0.7071 -0.7071
vn -0.0055 -0.3827 0.9239
vn -0.0055 0.3827 -0.9239
vn -0.0055 -0.0000 1.0000
vn -0.0055 -0.0000 -1.0000
vn -0.0055 -0.3827 -0.9239
vn -0.0055 0.3827 0.9239
vn -0.0055 -0.7071 -0.7071
vn -0.0055 0.7071 0.7071
vn -0.9527 -0.1164 0.2809
vn -0.9527 -0.0000 0.3040
vn -0.9527 -0.2150 0.2150
vn -0.9527 0.1164 0.2809
vn -0.9527 -0.2809 0.1164
vn -0.9527 -0.3040 -0.0000
vn -0.9527 -0.2809 -0.1164
vn -0.9527 -0.2150 -0.2150
vn -0.9527 -0.1164 -0.2809
vn -0.9527 -0.0000 -0.3040
vn -0.9527 0.1164 -0.2809
vn -0.9527 0.2150 -0.2150
vn -0.9527 0.2809 -0.1164
vn -0.9527 0.3040 -0.0000
vn -0.9527 0.2809 0.1164
vn -0.9527 0.2150 0.2150
vn -1.0000 -0.0000 -0.0000
vn -0.6302 0.5490 -0.5490
vn -0.6302 -0.0000 -0.7764
vn -0.6302 -0.5490 -0.5490
vn -0.6302 -0.7764 -0.0000
vn -0.6302 -0.5490 0.5490
vn -0.6302 -0.0000 0.7764
vn -0.6302 0.5490 0.5490
vn -0.6302 0.7764 -0.0000
vn -0.5490 0.5490 0.6302
vn -0.7764 -0.0000 0.6302
vn -0.5490 -0.5490 0.6302
vn -0.7071 0.7071 -0.0000
vn -0.7071 -0.7071 -0.0000
vn 0.5490 0.5490 -0.6302
vn 0.7764 -0.0000 -0.6302
vn 0.5490 -0.5490 -0.6302
vn -0.0000 -0.7764 -0.6303
vn -0.0000 0.7764 -0.6302
vn -0.7764 -0.0000 -0.6302
vn -0.5490 0.5490 -0.6302
vn -0.5490 -0.5490 -0.6302
vt 0.187500 0.197480
vt 0.250000 0.197244
vt 0.250000 0.249034
vt 0.187500 0.249287
vt 0.125000 0.197717
vt 0.125000 0.249540
vt 0.062500 0.197953
vt 0.062500 0.249793
vt 0.000000 0.198189
vt 0.000000 0.250046
vt 0.937500 0.194648
vt 1.000000 0.194412
vt 1.000000 0.245997
vt 0.937500 0.246250
vt 0.875000 0.194884
vt 0.875000 0.246503
vt 0.812500 0.195120
vt 0.812500 0.246756
vt 0.750000 0.195356
vt 0.750000 0.247009
vt 0.687500 0.195592
vt 0.687500 0.247262
vt 0.625000 0.195828
vt 0.625000 0.247515
vt 0.562500 0.196064
vt 0.562500 0.247768
vt 0.500000 0.196300
vt 0.500000 0.248021
vt 0.437500 0.196536
vt 0.437500 0.248274
vt 0.375000 0.196772
vt 0.375000 0.248528
vt 0.312500 0.197008
vt 0.312500 0.248781
vt 0.187500 0.071250
vt 0.250000 0.071056
vt 0.250000 0.119821
vt 0.187500 0.120032
vt 0.125000 0.071445
vt 0.125000 0.120242
vt 0.062500 0.071640
vt 0.062500 0.120453
vt 0.000000 0.071835
vt 0.000000 0.120664
vt 0.937500 0.068913
vt 1.000000 0.068719
vt 1.000000 0.117292
vt 0.937500 0.117503
vt 0.875000 0.069108
vt 0.875000 0.117714
vt 0.812500 0.069303
vt 0.812500 0.117925
vt 0.750000 0.069498
vt 0.750000 0.118135
vt 0.687500 0.069692
vt 0.687500 0.118346
vt 0.625000 0.069887
vt 0.625000 0.118557
vt 0.562500 0.070082
vt 0.562500 0.118767
vt 0.500000 0.070277
vt 0.500000 0.118978
vt 0.437500 0.070471
vt 0.437500 0.119189
vt 0.375000 0.070666
vt 0.375000 0.119400
vt 0.312500 0.070861
vt 0.312500 0.119610
vt 0.437500 0.157184
vt 0.500000 0.156960
vt 0.937500 0.155398
vt 1.000000 0.155175
vt 0.562500 0.156737
vt 0.000000 0.158746
vt 0.062500 0.158523
vt 0.625000 0.156514
vt 0.125000 0.158299
vt 0.687500 0.156291
vt 0.187500 0.158076
vt 0.750000 0.156068
vt 0.250000 0.157853
vt 0.312500 0.157630
vt 0.812500 0.155845
vt 0.375000 0.157407
vt 0.875000 0.155621
vt 0.187500 0.002299
vt 0.250000 0.002127
vt 0.125000 0.002471
vt 0.312500 0.001955
vt 0.062500 0.002643
vt 0.000000 0.002816
vt 0.937500 0.000233
vt 1.000000 0.000061
vt 0.875000 0.000405
vt 0.812500 0.000578
vt 0.750000 0.000750
vt 0.687500 0.000922
vt 0.625000 0.001094
vt 0.562500 0.001266
vt 0.500000 0.001438
vt 0.437500 0.001610
vt 0.375000 0.001783
vt 0.678923 0.443513
vt 0.500440 0.368702
vt 0.500440 0.346327
vt 0.694746 0.427690
vt 0.320305 0.442056
vt 0.247104 0.622147
vt 0.224661 0.622147
vt 0.304504 0.426254
vt 0.320928 0.801509
vt 0.500440 0.874244
vt 0.500440 0.896672
vt 0.305158 0.817279
vt 0.677984 0.799735
vt 0.752261 0.622147
vt 0.774595 0.622147
vt 0.693826 0.815577
vt 0.839616 0.622147
vt 0.739795 0.861546
vt 0.500440 0.281312
vt 0.740717 0.381719
vt 0.159666 0.622147
vt 0.258544 0.380295
vt 0.500440 0.961657
vt 0.259201 0.863236
vt 0.680164 0.445944
vt 0.502784 0.368023
vt 0.503091 0.345717
vt 0.696265 0.430295
vt 0.322084 0.440779
vt 0.245973 0.618920
vt 0.223586 0.618612
vt 0.306486 0.424725
vt 0.751820 0.624941
vt 0.774156 0.625278
vt 0.500106 0.280673
vt 0.740249 0.382274
vt 0.158540 0.621771
vt 0.258262 0.380980
vt 0.839197 0.622197
s 1
usemtl Wheel
f 122/29/69 119/30/70 120/31/71 121/32/72
f 156/33/73 122/29/69 121/32/72 123/34/74
f 125/35/75 156/33/73 123/34/74 124/36/76
f 164/37/77 125/35/75 124/36/76 126/38/78
f 148/39/79 164/40/77 126/41/78 127/42/80
f 129/43/81 148/39/79 127/42/80 128/44/82
f 131/45/83 129/43/81 128/44/82 130/46/84
f 133/47/85 131/45/83 130/46/84 132/48/86
f 135/49/87 133/47/85 132/48/86 134/50/88
f 158/51/89 135/49/87 134/50/88 136/52/90
f 138/53/91 158/51/89 136/52/90 137/54/92
f 140/55/93 138/53/91 137/54/92 139/56/94
f 142/57/95 140/55/93 139/56/94 141/58/96
f 144/59/97 142/57/95 141/58/96 143/60/98
f 146/61/99 144/59/97 143/60/98 145/62/100
f 119/30/70 146/61/99 145/62/100 120/31/71
f 168/63/101 169/64/102 154/65/103 153/66/104
f 172/67/105 168/63/101 153/66/104 155/68/106
f 174/69/107 172/67/105 155/68/106 159/70/108
f 176/71/109 174/69/107 159/70/108 163/72/110
f 178/73/111 176/74/109 163/75/110 149/76/112
f 180/77/113 178/73/111 149/76/112 147/78/114
f 182/79/115 180/77/113 147/78/114 181/80/116
f 184/81/117 182/79/115 181/80/116 152/82/118
f 186/83/119 184/81/117 152/82/118 185/84/120
f 188/85/121 186/83/119 185/84/120 187/86/122
f 190/87/123 188/85/121 187/86/122 161/88/124
f 192/89/125 190/87/123 161/88/124 165/90/126
f 194/91/127 192/89/125 165/90/126 150/92/128
f 196/93/129 194/91/127 150/92/128 195/94/130
f 198/95/131 196/93/129 195/94/130 151/96/132
f 169/64/102 198/95/131 151/96/132 154/65/103
f 191/97/133 166/98/134 140/55/93 142/57/95
f 162/99/135 160/100/136 164/40/77 148/39/79
f 166/98/134 193/101/137 138/53/91 140/55/93
f 160/102/136 197/103/138 125/35/75 164/37/77
f 193/101/137 175/104/139 158/51/89 138/53/91
f 197/103/138 157/105/140 156/33/73 125/35/75
f 175/104/139 177/106/141 135/49/87 158/51/89
f 157/105/140 173/107/142 122/29/69 156/33/73
f 177/106/141 179/108/143 133/47/85 135/49/87
f 171/109/144 183/110/145 146/61/99 119/30/70
f 173/107/142 171/109/144 119/30/70 122/29/69
f 179/108/143 170/111/146 131/45/83 133/47/85
f 183/110/145 189/112/147 144/59/97 146/61/99
f 170/111/146 167/113/148 129/43/81 131/45/83
f 189/112/147 191/97/133 142/57/95 144/59/97
f 167/113/148 162/99/135 148/39/79 129/43/81
f 150/92/128 165/90/126 166/98/134 191/97/133
f 149/76/112 163/75/110 160/100/136 162/99/135
f 165/90/126 161/88/124 193/101/137 166/98/134
f 163/72/110 159/70/108 197/103/138 160/102/136
f 161/88/124 187/86/122 175/104/139 193/101/137
f 159/70/108 155/68/106 157/105/140 197/103/138
f 187/86/122 185/84/120 177/106/141 175/104/139
f 155/68/106 153/66/104 173/107/142 157/105/140
f 185/84/120 152/82/118 179/108/143 177/106/141
f 154/65/103 151/96/132 183/110/145 171/109/144
f 153/66/104 154/65/103 171/109/144 173/107/142
f 152/82/118 181/80/116 170/111/146 179/108/143
f 151/96/132 195/94/130 189/112/147 183/110/145
f 181/80/116 147/78/114 167/113/148 170/111/146
f 195/94/130 150/92/128 191/97/133 189/112/147
f 147/78/114 149/76/112 162/99/135 167/113/148
f 103/114/149 104/115/150 169/64/102 168/63/101
f 105/116/151 103/114/149 168/63/101 172/67/105
f 104/115/150 118/117/152 198/95/131 169/64/102
f 106/118/153 105/116/151 172/67/105 174/69/107
f 107/119/154 106/118/153 174/69/107 176/71/109
f 108/120/155 107/121/154 176/74/109 178/73/111
f 109/122/156 108/120/155 178/73/111 180/77/113
f 110/123/157 109/122/156 180/77/113 182/79/115
f 111/124/158 110/123/157 182/79/115 184/81/117
f 112/125/159 111/124/158 184/81/117 186/83/119
f 113/126/160 112/125/159 186/83/119 188/85/121
f 114/127/161 113/126/160 188/85/121 190/87/123
f 115/128/162 114/127/161 190/87/123 192/89/125
f 116/129/163 115/128/162 192/89/125 194/91/127
f 117/130/164 116/129/163 194/91/127 196/93/129
f 118/117/152 117/130/164 196/93/129 198/95/131
f 206/131/165 205/132/165 213/133/166 214/134/167
f 204/135/165 203/136/165 211/137/168 212/138/169
f 202/139/165 201/140/165 209/141/170 210/142/171
f 200/143/165 199/144/165 208/145/172 207/146/173
f 199/144/165 206/131/165 214/134/167 208/145/172
f 205/132/165 204/135/165 212/138/169 213/133/166
f 203/136/165 202/139/165 210/142/171 211/137/168
f 201/140/165 200/143/165 207/146/173 209/141/170
f 207/146/173 208/145/172 216/147/174 215/148/175
f 214/134/167 213/133/166 221/149/176 222/150/177
f 212/138/169 211/137/168 219/151/178 220/152/179
f 210/142/171 209/141/170 217/153/180 218/154/181
f 208/145/172 214/134/167 222/150/177 216/147/174
f 209/141/170 207/146/173 215/148/175 217/153/180
f 213/133/166 212/138/169 220/152/179 221/149/176
f 211/137/168 210/142/171 218/154/181 219/151/178
f 227/155/180 226/156/180 231/157/182 232/158/183
f 225/159/180 224/160/180 229/161/184 230/162/185
f 223/163/180 227/155/180 232/158/183 228/164/186
f 226/156/180 225/159/180 230/162/185 231/157/182
f 232/158/183 231/157/182 236/165/165 237/166/187
f 230/162/185 229/161/184 234/167/178 235/168/188
f 228/164/186 232/158/183 237/166/187 233/169/174
f 231/157/182 230/162/185 235/168/188 236/165/165
f 257/29/189 256/32/190 255/31/191 254/30/192
f 291/33/193 258/34/194 256/32/190 257/29/189
f 260/35/195 259/36/196 258/34/194 291/33/193
f 299/37/197 261/38/198 259/36/196 260/35/195
f 283/39/199 262/42/200 261/41/198 299/40/197
f 264/43/201 263/44/202 262/42/200 283/39/199
f 266/45/203 265/46/204 263/44/202 264/43/201
f 268/47/205 267/48/206 265/46/204 266/45/203
f 270/49/207 269/50/208 267/48/206 268/47/205
f 293/51/209 271/52/210 269/50/208 270/49/207
f 273/53/211 272/54/212 271/52/210 293/51/209
f 275/55/213 274/56/214 272/54/212 273/53/211
f 277/57/215 276/58/216 274/56/214 275/55/213
f 279/59/217 278/60/218 276/58/216 277/57/215
f 281/61/219 280/62/220 278/60/218 279/59/217
f 254/30/192 255/31/191 280/62/220 281/61/219
f 303/63/221 288/66/222 289/65/223 304/64/224
f 307/67/225 290/68/226 288/66/222 303/63/221
f 309/69/227 294/70/228 290/68/226 307/67/225
f 311/71/229 298/72/230 294/70/228 309/69/227
f 313/73/231 284/76/232 298/75/230 311/74/229
f 315/77/233 282/78/234 284/76/232 313/73/231
f 317/79/235 316/80/236 282/78/234 315/77/233
f 319/81/237 287/82/238 316/80/236 317/79/235
f 321/83/239 320/84/240 287/82/238 319/81/237
f 323/85/241 322/86/242 320/84/240 321/83/239
f 325/87/243 296/88/244 322/86/242 323/85/241
f 327/89/245 300/90/246 296/88/244 325/87/243
f 329/91/247 285/92/248 300/90/246 327/89/245
f 331/93/249 330/94/250 285/92/248 329/91/247
f 333/95/251 286/96/252 330/94/250 331/93/249
f 304/64/224 289/65/223 286/96/252 333/95/251
f 326/97/253 277/57/215 275/55/213 301/98/254
f 297/99/255 283/39/199 299/40/197 295/100/256
f 301/98/254 275/55/213 273/53/211 328/101/257
f 295/102/256 299/37/197 260/35/195 332/103/258
f 328/101/257 273/53/211 293/51/209 310/104/259
f 332/103/258 260/35/195 291/33/193 292/105/260
f 310/104/259 293/51/209 270/49/207 312/106/261
f 292/105/260 291/33/193 257/29/189 308/107/262
f 312/106/261 270/49/207 268/47/205 314/108/263
f 306/109/264 254/30/192 281/61/219 318/110/265
f 308/107/262 257/29/189 254/30/192 306/109/264
f 314/108/263 268/47/205 266/45/203 305/111/266
f 318/110/265 281/61/219 279/59/217 324/112/267
f 305/111/266 266/45/203 264/43/201 302/113/268
f 324/112/267 279/59/217 277/57/215 326/97/253
f 302/113/268 264/43/201 283/39/199 297/99/255
f 285/92/248 326/97/253 301/98/254 300/90/246
f 284/76/232 297/99/255 295/100/256 298/75/230
f 300/90/246 301/98/254 328/101/257 296/88/244
f 298/72/230 295/102/256 332/103/258 294/70/228
f 296/88/244 328/101/257 310/104/259 322/86/242
f 294/70/228 332/103/258 292/105/260 290/68/226
f 322/86/242 310/104/259 312/106/261 320/84/240
f 290/68/226 292/105/260 308/107/262 288/66/222
f 320/84/240 312/106/261 314/108/263 287/82/238
f 289/65/223 306/109/264 318/110/265 286/96/252
f 288/66/222 308/107/262 306/109/264 289/65/223
f 287/82/238 314/108/263 305/111/266 316/80/236
f 286/96/252 318/110/265 324/112/267 330/94/250
f 316/80/236 305/111/266 302/113/268 282/78/234
f 330/94/250 324/112/267 326/97/253 285/92/248
f 282/78/234 302/113/268 297/99/255 284/76/232
f 238/114/269 303/63/221 304/64/224 239/115/270
f 240/116/271 307/67/225 303/63/221 238/114/269
f 239/115/270 304/64/224 333/95/251 253/117/272
f 241/118/273 309/69/227 307/67/225 240/116/271
f 242/119/274 311/71/229 309/69/227 241/118/273
f 243/120/275 313/73/231 311/74/229 242/121/274
f 244/122/276 315/77/233 313/73/231 243/120/275
f 245/123/277 317/79/235 315/77/233 244/122/276
f 246/124/278 319/81/237 317/79/235 245/123/277
f 247/125/279 321/83/239 319/81/237 246/124/278
f 248/126/280 323/85/241 321/83/239 247/125/279
f 249/127/281 325/87/243 323/85/241 248/126/280
f 250/128/282 327/89/245 325/87/243 249/127/281
f 251/129/283 329/91/247 327/89/245 250/128/282
f 252/130/284 331/93/249 329/91/247 251/129/283
f 253/117/272 333/95/251 331/93/249 252/130/284
f 341/131/285 349/134/286 348/133/287 340/132/285
f 339/135/285 347/138/288 346/137/289 338/136/285
f 337/139/285 345/142/290 344/141/291 336/140/285
f 335/143/285 342/146/292 343/145/293 334/144/285
f 334/144/285 343/145/293 349/134/286 341/131/285
f 340/132/285 348/133/287 347/138/288 339/135/285
f 338/136/285 346/137/289 345/142/290 337/139/285
f 336/140/285 344/141/291 342/146/292 335/143/285
f 342/146/292 350/148/175 351/147/174 343/145/293
f 349/134/286 357/150/177 356/149/176 348/133/287
f 347/138/288 355/152/179 354/151/178 346/137/289
f 345/142/290 353/154/181 352/153/180 344/141/291
f 343/145/293 351/147/174 357/150/177 349/134/286
f 344/141/291 352/153/180 350/148/175 342/146/292
f 348/133/287 356/149/176 355/152/179 347/138/288
f 346/137/289 354/151/178 353/154/181 345/142/290
f 360/155/180 363/158/294 362/157/295 359/156/180
f 358/159/180 361/162/296 229/161/184 224/160/180
f 223/163/180 228/164/186 363/158/294 360/155/180
f 359/156/180 362/157/295 361/162/296 358/159/180
f 363/158/294 366/166/297 365/165/285 362/157/295
f 361/162/296 364/168/298 234/167/178 229/161/184
f 228/164/186 233/169/174 366/166/297 363/158/294
f 362/157/295 365/165/285 364/168/298 361/162/296
f 386/29/83 385/32/84 384/31/86 383/30/85
f 420/33/81 387/34/82 385/32/84 386/29/83
f 389/35/79 388/36/80 387/34/82 420/33/81
f 428/37/77 390/38/78 388/36/80 389/35/79
f 412/39/75 391/42/76 390/41/78 428/40/77
f 393/43/73 392/44/74 391/42/76 412/39/75
f 395/45/69 394/46/72 392/44/74 393/43/73
f 397/47/70 396/48/71 394/46/72 395/45/69
f 399/49/99 398/50/100 396/48/71 397/47/70
f 422/51/97 400/52/98 398/50/100 399/49/99
f 402/53/95 401/54/96 400/52/98 422/51/97
f 404/55/93 403/56/94 401/54/96 402/53/95
f 406/57/91 405/58/92 403/56/94 404/55/93
f 408/59/89 407/60/90 405/58/92 406/57/91
f 410/61/87 409/62/88 407/60/90 408/59/89
f 383/30/85 384/31/86 409/62/88 410/61/87
f 432/63/115 417/66/116 418/65/118 433/64/117
f 436/67/113 419/68/114 417/66/116 432/63/115
f 438/69/111 423/70/112 419/68/114 436/67/113
f 440/71/109 427/72/110 423/70/112 438/69/111
f 442/73/107 413/76/108 427/75/110 440/74/109
f 444/77/105 411/78/106 413/76/108 442/73/107
f 446/79/101 445/80/104 411/78/106 444/77/105
f 448/81/102 416/82/103 445/80/104 446/79/101
f 450/83/131 449/84/132 416/82/103 448/81/102
f 452/85/129 451/86/130 449/84/132 450/83/131
f 454/87/127 425/88/128 451/86/130 452/85/129
f 456/89/125 429/90/126 425/88/128 454/87/127
f 458/91/123 414/92/124 429/90/126 456/89/125
f 460/93/121 459/94/122 414/92/124 458/91/123
f 462/95/119 415/96/120 459/94/122 460/93/121
f 433/64/117 418/65/118 415/96/120 462/95/119
f 455/97/137 406/57/91 404/55/93 430/98/134
f 426/99/138 412/39/75 428/40/77 424/100/136
f 430/98/134 404/55/93 402/53/95 457/101/133
f 424/102/136 428/37/77 389/35/79 461/103/135
f 457/101/133 402/53/95 422/51/97 439/104/147
f 461/103/135 389/35/79 420/33/81 421/105/148
f 439/104/147 422/51/97 399/49/99 441/106/145
f 421/105/148 420/33/81 386/29/83 437/107/146
f 441/106/145 399/49/99 397/47/70 443/108/144
f 435/109/143 383/30/85 410/61/87 447/110/141
f 437/107/146 386/29/83 383/30/85 435/109/143
f 443/108/144 397/47/70 395/45/69 434/111/142
f 447/110/141 410/61/87 408/59/89 453/112/139
f 434/111/142 395/45/69 393/43/73 431/113/140
f 453/112/139 408/59/89 406/57/91 455/97/137
f 431/113/140 393/43/73 412/39/75 426/99/138
f 414/92/124 455/97/137 430/98/134 429/90/126
f 413/76/108 426/99/138 424/100/136 427/75/110
f 429/90/126 430/98/134 457/101/133 425/88/128
f 427/72/110 424/102/136 461/103/135 423/70/112
f 425/88/128 457/101/133 439/104/147 451/86/130
f 423/70/112 461/103/135 421/105/148 419/68/114
f 451/86/130 439/104/147 441/106/145 449/84/132
f 419/68/114 421/105/148 437/107/146 417/66/116
f 449/84/132 441/106/145 443/108/144 416/82/103
f 418/65/118 435/109/143 447/110/141 415/96/120
f 417/66/116 437/107/146 435/109/143 418/65/118
f 416/82/103 443/108/144 434/111/142 445/80/104
f 415/96/120 447/110/141 453/112/139 459/94/122
f 445/80/104 434/111/142 431/113/140 411/78/106
f 459/94/122 453/112/139 455/97/137 414/92/124
f 411/78/106 431/113/140 426/99/138 413/76/108
f 367/114/157 432/63/115 433/64/117 368/115/158
f 369/116/156 436/67/113 432/63/115 367/114/157
f 368/115/158 433/64/117 462/95/119 382/117/159
f 370/118/155 438/69/111 436/67/113 369/116/156
f 371/119/154 440/71/109 438/69/111 370/118/155
f 372/120/153 442/73/107 440/74/109 371/121/154
f 373/122/151 444/77/105 442/73/107 372/120/153
f 374/123/149 446/79/101 444/77/105 373/122/151
f 375/124/150 448/81/102 446/79/101 374/123/149
f 376/125/152 450/83/131 448/81/102 375/124/150
f 377/126/164 452/85/129 450/83/131 376/125/152
f 378/127/163 454/87/127 452/85/129 377/126/164
f 379/128/162 456/89/125 454/87/127 378/127/163
f 380/129/161 458/91/123 456/89/125 379/128/162
f 381/130/160 460/93/121 458/91/123 380/129/161
f 382/117/159 462/95/119 460/93/121 381/130/160
f 470/131/165 478/134/173 477/133/170 469/132/165
f 468/135/165 476/138/171 475/137/168 467/136/165
f 466/139/165 474/142/169 473/141/166 465/140/165
f 464/143/165 471/146/167 472/145/172 463/144/165
f 463/144/165 472/145/172 478/134/173 470/131/165
f 469/132/165 477/133/170 476/138/171 468/135/165
f 467/136/165 475/137/168 474/142/169 466/139/165
f 465/140/165 473/141/166 471/146/167 464/143/165
f 471/146/167 479/148/177 480/147/174 472/145/172
f 478/134/173 486/150/175 485/149/180 477/133/170
f 476/138/171 484/152/181 483/151/178 475/137/168
f 474/142/169 482/154/179 481/153/176 473/141/166
f 472/145/172 480/147/174 486/150/175 478/134/173
f 473/141/166 481/153/176 479/148/177 471/146/167
f 477/133/170 485/149/180 484/152/181 476/138/171
f 475/137/168 483/151/178 482/154/179 474/142/169
f 491/155/176 496/158/299 495/157/300 490/156/176
f 489/159/176 494/162/301 493/161/302 488/160/176
f 487/163/176 492/164/303 496/158/299 491/155/176
f 490/156/176 495/157/300 494/162/301 489/159/176
f 496/158/299 501/166/187 500/165/165 495/157/300
f 494/162/301 499/168/188 498/167/178 493/161/302
f 492/164/303 497/169/174 501/166/187 496/158/299
f 495/157/300 500/165/165 499/168/188 494/162/301
f 521/29/203 518/30/205 519/31/206 520/32/204
f 555/33/201 521/29/203 520/32/204 522/34/202
f 524/35/199 555/33/201 522/34/202 523/36/200
f 563/37/197 524/35/199 523/36/200 525/38/198
f 547/39/195 563/40/197 525/41/198 526/42/196
f 528/43/193 547/39/195 526/42/196 527/44/194
f 530/45/189 528/43/193 527/44/194 529/46/190
f 532/47/192 530/45/189 529/46/190 531/48/191
f 534/49/219 532/47/192 531/48/191 533/50/220
f 557/51/217 534/49/219 533/50/220 535/52/218
f 537/53/215 557/51/217 535/52/218 536/54/216
f 539/55/213 537/53/215 536/54/216 538/56/214
f 541/57/211 539/55/213 538/56/214 540/58/212
f 543/59/209 541/57/211 540/58/212 542/60/210
f 545/61/207 543/59/209 542/60/210 544/62/208
f 518/30/205 545/61/207 544/62/208 519/31/206
f 567/63/235 568/64/237 553/65/238 552/66/236
f 571/67/233 567/63/235 552/66/236 554/68/234
f 573/69/231 571/67/233 554/68/234 558/70/232
f 575/71/229 573/69/231 558/70/232 562/72/230
f 577/73/227 575/74/229 562/75/230 548/76/228
f 579/77/225 577/73/227 548/76/228 546/78/226
f 581/79/221 579/77/225 546/78/226 580/80/222
f 583/81/224 581/79/221 580/80/222 551/82/223
f 585/83/251 583/81/224 551/82/223 584/84/252
f 587/85/249 585/83/251 584/84/252 586/86/250
f 589/87/247 587/85/249 586/86/250 560/88/248
f 591/89/245 589/87/247 560/88/248 564/90/246
f 593/91/243 591/89/245 564/90/246 549/92/244
f 595/93/241 593/91/243 549/92/244 594/94/242
f 597/95/239 595/93/241 594/94/242 550/96/240
f 568/64/237 597/95/239 550/96/240 553/65/238
f 590/97/257 565/98/254 539/55/213 541/57/211
f 561/99/258 559/100/256 563/40/197 547/39/195
f 565/98/254 592/101/253 537/53/215 539/55/213
f 559/102/256 596/103/255 524/35/199 563/37/197
f 592/101/253 574/104/267 557/51/217 537/53/215
f 596/103/255 556/105/268 555/33/201 524/35/199
f 574/104/267 576/106/265 534/49/219 557/51/217
f 556/105/268 572/107/266 521/29/203 555/33/201
f 576/106/265 578/108/264 532/47/192 534/49/219
f 570/109/263 582/110/261 545/61/207 518/30/205
f 572/107/266 570/109/263 518/30/205 521/29/203
f 578/108/264 569/111/262 530/45/189 532/47/192
f 582/110/261 588/112/259 543/59/209 545/61/207
f 569/111/262 566/113/260 528/43/193 530/45/189
f 588/112/259 590/97/257 541/57/211 543/59/209
f 566/113/260 561/99/258 547/39/195 528/43/193
f 549/92/244 564/90/246 565/98/254 590/97/257
f 548/76/228 562/75/230 559/100/256 561/99/258
f 564/90/246 560/88/248 592/101/253 565/98/254
f 562/72/230 558/70/232 596/103/255 559/102/256
f 560/88/248 586/86/250 574/104/267 592/101/253
f 558/70/232 554/68/234 556/105/268 596/103/255
f 586/86/250 584/84/252 576/106/265 574/104/267
f 554/68/234 552/66/236 572/107/266 556/105/268
f 584/84/252 551/82/223 578/108/264 576/106/265
f 553/65/238 550/96/240 582/110/261 570/109/263
f 552/66/236 553/65/238 570/109/263 572/107/266
f 551/82/223 580/80/222 569/111/262 578/108/264
f 550/96/240 594/94/242 588/112/259 582/110/261
f 580/80/222 546/78/226 566/113/260 569/111/262
f 594/94/242 549/92/244 590/97/257 588/112/259
f 546/78/226 548/76/228 561/99/258 566/113/260
f 502/114/277 503/115/278 568/64/237 567/63/235
f 504/116/276 502/114/277 567/63/235 571/67/233
f 503/115/278 517/117/279 597/95/239 568/64/237
f 505/118/275 504/116/276 571/67/233 573/69/231
f 506/119/274 505/118/275 573/69/231 575/71/229
f 507/120/273 506/121/274 575/74/229 577/73/227
f 508/122/271 507/120/273 577/73/227 579/77/225
f 509/123/269 508/122/271 579/77/225 581/79/221
f 510/124/270 509/123/269 581/79/221 583/81/224
f 511/125/272 510/124/270 583/81/224 585/83/251
f 512/126/284 511/125/272 585/83/251 587/85/249
f 513/127/283 512/126/284 587/85/249 589/87/247
f 514/128/282 513/127/283 589/87/247 591/89/245
f 515/129/281 514/128/282 591/89/245 593/91/243
f 516/130/280 515/129/281 593/91/243 595/93/241
f 517/117/279 516/130/280 595/93/241 597/95/239
f 605/131/285 604/132/285 612/133/291 613/134/292
f 603/135/285 602/136/285 610/137/289 611/138/290
f 601/139/285 600/140/285 608/141/287 609/142/288
f 599/143/285 598/144/285 607/145/293 606/146/286
f 598/144/285 605/131/285 613/134/292 607/145/293
f 604/132/285 603/135/285 611/138/290 612/133/291
f 602/136/285 601/139/285 609/142/288 610/137/289
f 600/140/285 599/143/285 606/146/286 608/141/287
f 606/146/286 607/145/293 615/147/174 614/148/177
f 613/134/292 612/133/291 620/149/180 621/150/175
f 611/138/290 610/137/289 618/151/178 619/152/181
f 609/142/288 608/141/287 616/153/176 617/154/179
f 607/145/293 613/134/292 621/150/175 615/147/174
f 608/141/287 606/146/286 614/148/177 616/153/176
f 612/133/291 611/138/290 619/152/181 620/149/180
f 610/137/289 609/142/288 617/154/179 618/151/178
f 624/155/176 623/156/176 626/157/304 627/158/305
f 622/159/176 488/160/176 493/161/302 625/162/306
f 487/163/176 624/155/176 627/158/305 492/164/303
f 623/156/176 622/159/176 625/162/306 626/157/304
f 627/158/305 626/157/304 629/165/285 630/166/297
f 625/162/306 493/161/302 498/167/178 628/168/298
f 492/164/303 627/158/305 630/166/297 497/169/174
f 626/157/304 625/162/306 628/168/298 629/165/285
