# Blender 4.5.0
# www.blender.org
mtllib WallForTexture.mtl
o Walls
v -18.333334 0.000000 -12.333333
v -18.333334 13.333333 -12.333333
v 18.333332 0.000000 -12.333334
v 18.333332 13.333333 -12.333334
v -18.333332 0.000000 12.333334
v 18.333332 0.000000 12.333331
v 18.333332 13.333333 12.333331
v -18.333334 13.333333 12.333333
v -30.410538 -4.391710 -14.085841
v -30.410538 17.725042 -14.085841
v 30.410538 -4.391710 -14.085842
v 30.410538 17.725042 -14.085842
v 0.666666 4.000000 -12.333334
v 8.666666 4.000000 -12.333334
v 0.666666 10.666667 -12.333334
v 8.666666 10.666667 -12.333334
v 8.666666 10.666667 -14.085842
v 0.666666 10.666667 -14.085842
v 0.666666 4.000000 -14.085842
v 8.666666 4.000000 -14.085842
vn -0.0000 -0.0000 1.0000
vn -1.0000 -0.0000 -0.0000
vn -0.0000 1.0000 -0.0000
vn -0.0000 -1.0000 -0.0000
vn -0.0000 -0.0000 -1.0000
vn 1.0000 -0.0000 -0.0000
vt 0.705701 0.500000
vt 0.832973 0.368182
vt 0.887519 0.500000
vt 0.832973 0.259091
vt 0.742064 0.259091
vt 0.705701 -0.000000
vt 0.887519 0.836364
vt 0.705701 0.500000
vt 0.887519 0.500000
vt 0.369337 0.000000
vt 0.705701 0.500000
vt 0.369337 0.500000
vt 0.369337 1.000000
vt 0.369337 0.500000
vt 0.310744 0.854546
vt 0.000000 0.854546
vt 0.217521 0.411736
vt 0.000000 0.000000
vt 0.217521 0.225289
vt 0.062149 0.225289
vt 0.310744 0.427226
vt 0.363558 0.620724
vt 0.312605 0.621694
vt 0.313364 0.194076
vt 0.369063 0.001337
vt 0.364324 0.195026
vt 0.361786 0.427314
vt 0.369337 0.853187
vt 0.318395 0.854546
vt 0.742064 0.368182
vt 0.742064 0.368182
vt 0.887519 -0.000000
vt 0.705701 0.836364
vt 0.705700 0.000000
vt 0.705700 1.000000
vt 0.310744 0.000000
vt 0.000000 0.000000
vt 0.062149 0.411736
vt 0.062149 0.225289
vt 0.318125 -0.000000
s 1
usemtl Mat.Wall
f 4/1/1 14/2/1 3/3/1
f 13/4/1 15/5/1 2/6/1
f 6/7/2 4/8/2 3/9/2
f 9/15/5 10/16/5 19/17/5
f 12/18/5 20/19/5 17/20/5
f 13/21/6 18/22/6 15/23/6
f 14/24/2 17/25/2 20/26/2
f 13/21/3 20/26/3 19/27/3
f 15/23/4 17/28/4 16/29/4
f 4/1/1 16/30/1 14/2/1
f 15/5/1 16/31/1 4/8/1
f 1/32/1 3/3/1 13/4/1
f 3/3/1 14/2/1 13/4/1
f 15/5/1 4/8/1 2/6/1
f 1/32/1 13/4/1 2/6/1
f 6/7/2 7/33/2 4/8/2
f 20/19/5 11/36/5 19/17/5
f 11/36/5 9/15/5 19/17/5
f 10/16/5 12/37/5 18/38/5
f 12/37/5 17/39/5 18/38/5
f 10/16/5 18/38/5 19/17/5
f 12/18/5 11/36/5 20/19/5
f 13/21/6 19/27/6 18/22/6
f 14/24/2 16/40/2 17/25/2
f 13/21/3 14/24/3 20/26/3
f 15/23/4 18/22/4 17/28/4
usemtl Mat.Floor
f 1/10/3 6/11/3 3/12/3
f 1/10/3 5/34/3 6/11/3
usemtl Mat.Ceiling
f 2/11/4 7/13/4 8/14/4
f 2/11/4 4/35/4 7/13/4
