# Blender 4.5.0
# www.blender.org
mtllib LetterBlock.mtl
o LetterBlock
v 0.877407 0.939258 -0.877407
v -0.877407 0.939258 -0.877407
v -0.877407 0.939258 0.877407
v 0.877407 0.939258 0.877407
v 0.877407 -0.877407 0.939258
v 0.877407 0.877407 0.939258
v -0.877407 0.877407 0.939258
v -0.877407 -0.877407 0.939258
v -0.939258 -0.877407 0.877407
v -0.939258 0.877407 0.877407
v -0.939258 0.877407 -0.877407
v -0.939258 -0.877407 -0.877407
v -0.877407 -0.939258 -0.877407
v 0.877407 -0.939258 -0.877407
v 0.877407 -0.939258 0.877407
v -0.877407 -0.939258 0.877407
v 0.939258 -0.877407 -0.877407
v 0.939258 0.877407 -0.877407
v 0.939258 0.877407 0.877407
v 0.939258 -0.877407 0.877407
v -0.877407 -0.877407 -0.939258
v -0.877407 0.877407 -0.939258
v 0.877407 0.877407 -0.939258
v 0.877407 -0.877407 -0.939258
v 0.950000 0.950000 -1.000000
v 0.950000 1.000000 -0.950000
v 1.000000 0.950000 -0.950000
v 0.950000 0.985355 -0.985355
v 0.978868 0.978868 -0.978868
v 0.985355 0.985355 -0.950000
v 0.985355 0.950000 -0.985355
v 0.950000 -0.950000 -1.000000
v 1.000000 -0.950000 -0.950000
v 0.950000 -1.000000 -0.950000
v 0.985355 -0.950000 -0.985355
v 0.978868 -0.978868 -0.978868
v 0.985355 -0.985355 -0.950000
v 0.950000 -0.985355 -0.985355
v 1.000000 0.950000 0.950000
v 0.950000 1.000000 0.950000
v 0.950000 0.950000 1.000000
v 0.985355 0.985355 0.950000
v 0.978868 0.978868 0.978868
v 0.950000 0.985355 0.985355
v 0.985355 0.950000 0.985355
v 0.950000 -0.950000 1.000000
v 0.950000 -1.000000 0.950000
v 1.000000 -0.950000 0.950000
v 0.950000 -0.985355 0.985355
v 0.978868 -0.978868 0.978868
v 0.985355 -0.985355 0.950000
v 0.985355 -0.950000 0.985355
v -1.000000 0.950000 -0.950000
v -0.950000 1.000000 -0.950000
v -0.950000 0.950000 -1.000000
v -0.985355 0.985355 -0.950000
v -0.978868 0.978868 -0.978868
v -0.950000 0.985355 -0.985355
v -0.985355 0.950000 -0.985355
v -1.000000 -0.950000 -0.950000
v -0.950000 -0.950000 -1.000000
v -0.950000 -1.000000 -0.950000
v -0.985355 -0.950000 -0.985355
v -0.978868 -0.978868 -0.978868
v -0.950000 -0.985355 -0.985355
v -0.985355 -0.985355 -0.950000
v -0.950000 0.950000 1.000000
v -0.950000 1.000000 0.950000
v -1.000000 0.950000 0.950000
v -0.950000 0.985355 0.985355
v -0.978868 0.978868 0.978868
v -0.985355 0.985355 0.950000
v -0.985355 0.950000 0.985355
v -0.950000 -1.000000 0.950000
v -0.950000 -0.950000 1.000000
v -1.000000 -0.950000 0.950000
v -0.950000 -0.985355 0.985355
v -0.978868 -0.978868 0.978868
v -0.985355 -0.950000 0.985355
v -0.985355 -0.985355 0.950000
v 0.827407 0.950000 -0.877407
v 0.877407 0.950000 -0.827407
v 0.927407 1.000000 -0.927407
v 0.862762 0.950000 -0.862762
v 0.877407 0.978868 -0.877407
v 0.892051 0.985355 -0.877407
v 0.877407 0.985355 -0.892051
v -0.827407 0.950000 -0.877407
v -0.927407 1.000000 -0.927407
v -0.877407 0.950000 -0.827407
v -0.877407 0.985355 -0.892051
v -0.877407 0.978868 -0.877407
v -0.892051 0.985355 -0.877407
v -0.862762 0.950000 -0.862762
v -0.877407 0.950000 0.827407
v -0.927407 1.000000 0.927407
v -0.827407 0.950000 0.877407
v -0.892051 0.985355 0.877407
v -0.877407 0.978868 0.877407
v -0.877407 0.985355 0.892051
v -0.862762 0.950000 0.862762
v 0.877407 0.950000 0.827407
v 0.827407 0.950000 0.877407
v 0.927407 1.000000 0.927407
v 0.862762 0.950000 0.862762
v 0.877407 0.978868 0.877407
v 0.877407 0.985355 0.892051
v 0.892051 0.985355 0.877407
v 0.877407 -0.827407 0.950000
v 0.827407 -0.877407 0.950000
v 0.927407 -0.927407 1.000000
v 0.862762 -0.862762 0.950000
v 0.877407 -0.877407 0.978868
v 0.877407 -0.892051 0.985355
v 0.892051 -0.877407 0.985355
v 0.877407 0.827407 0.950000
v 0.927407 0.927407 1.000000
v 0.827407 0.877407 0.950000
v 0.892051 0.877407 0.985355
v 0.877407 0.877407 0.978868
v 0.877407 0.892051 0.985355
v 0.862762 0.862762 0.950000
v -0.827407 0.877407 0.950000
v -0.927407 0.927407 1.000000
v -0.877407 0.827407 0.950000
v -0.877407 0.892051 0.985355
v -0.877407 0.877407 0.978868
v -0.892051 0.877407 0.985355
v -0.862762 0.862762 0.950000
v -0.827407 -0.877407 0.950000
v -0.877407 -0.827407 0.950000
v -0.927407 -0.927407 1.000000
v -0.862762 -0.862762 0.950000
v -0.877407 -0.877407 0.978868
v -0.892051 -0.877407 0.985355
v -0.877407 -0.892051 0.985355
v -0.950000 -0.827407 0.877407
v -0.950000 -0.877407 0.827407
v -1.000000 -0.927407 0.927407
v -0.950000 -0.862762 0.862762
v -0.978868 -0.877407 0.877407
v -0.985355 -0.892051 0.877407
v -0.985355 -0.877407 0.892051
v -0.950000 0.827407 0.877407
v -1.000000 0.927407 0.927407
v -0.950000 0.877407 0.827407
v -0.985355 0.877407 0.892051
v -0.978868 0.877407 0.877407
v -0.985355 0.892051 0.877407
v -0.950000 0.862762 0.862762
v -0.950000 0.877407 -0.827407
v -1.000000 0.927407 -0.927407
v -0.950000 0.827407 -0.877407
v -0.985355 0.892051 -0.877407
v -0.978868 0.877407 -0.877407
v -0.985355 0.877407 -0.892051
v -0.950000 0.862762 -0.862762
v -0.950000 -0.877407 -0.827407
v -0.950000 -0.827407 -0.877407
v -1.000000 -0.927407 -0.927407
v -0.950000 -0.862762 -0.862762
v -0.978868 -0.877407 -0.877407
v -0.985355 -0.877407 -0.892051
v -0.985355 -0.892051 -0.877407
v -0.827407 -0.950000 -0.877407
v -0.877407 -0.950000 -0.827407
v -0.927407 -1.000000 -0.927407
v -0.862762 -0.950000 -0.862762
v -0.877407 -0.978868 -0.877407
v -0.892051 -0.985355 -0.877407
v -0.877407 -0.985355 -0.892051
v 0.827407 -0.950000 -0.877407
v 0.927407 -1.000000 -0.927407
v 0.877407 -0.950000 -0.827407
v 0.877407 -0.985355 -0.892051
v 0.877407 -0.978868 -0.877407
v 0.892051 -0.985355 -0.877407
v 0.862762 -0.950000 -0.862762
v 0.877407 -0.950000 0.827407
v 0.927407 -1.000000 0.927407
v 0.827407 -0.950000 0.877407
v 0.892051 -0.985355 0.877407
v 0.877407 -0.978868 0.877407
v 0.877407 -0.985355 0.892051
v 0.862762 -0.950000 0.862762
v -0.877407 -0.950000 0.827407
v -0.827407 -0.950000 0.877407
v -0.927407 -1.000000 0.927407
v -0.862762 -0.950000 0.862762
v -0.877407 -0.978868 0.877407
v -0.877407 -0.985355 0.892051
v -0.892051 -0.985355 0.877407
v 0.950000 -0.827407 -0.877407
v 0.950000 -0.877407 -0.827407
v 1.000000 -0.927407 -0.927407
v 0.950000 -0.862762 -0.862762
v 0.978868 -0.877407 -0.877407
v 0.985355 -0.892051 -0.877407
v 0.985355 -0.877407 -0.892051
v 0.950000 0.827407 -0.877407
v 1.000000 0.927407 -0.927407
v 0.950000 0.877407 -0.827407
v 0.985355 0.877407 -0.892051
v 0.978868 0.877407 -0.877407
v 0.985355 0.892051 -0.877407
v 0.950000 0.862762 -0.862762
v 0.950000 0.877407 0.827407
v 1.000000 0.927407 0.927407
v 0.950000 0.827407 0.877407
v 0.985355 0.892051 0.877407
v 0.978868 0.877407 0.877407
v 0.985355 0.877407 0.892051
v 0.950000 0.862762 0.862762
v 0.950000 -0.877407 0.827407
v 0.950000 -0.827407 0.877407
v 1.000000 -0.927407 0.927407
v 0.950000 -0.862762 0.862762
v 0.978868 -0.877407 0.877407
v 0.985355 -0.877407 0.892051
v 0.985355 -0.892051 0.877407
v -0.877407 -0.827407 -0.950000
v -0.827407 -0.877407 -0.950000
v -0.927407 -0.927407 -1.000000
v -0.862762 -0.862762 -0.950000
v -0.877407 -0.877407 -0.978868
v -0.877407 -0.892051 -0.985355
v -0.892051 -0.877407 -0.985355
v -0.877407 0.827407 -0.950000
v -0.927407 0.927407 -1.000000
v -0.827407 0.877407 -0.950000
v -0.892051 0.877407 -0.985355
v -0.877407 0.877407 -0.978868
v -0.877407 0.892051 -0.985355
v -0.862762 0.862762 -0.950000
v 0.827407 0.877407 -0.950000
v 0.927407 0.927407 -1.000000
v 0.877407 0.827407 -0.950000
v 0.877407 0.892051 -0.985355
v 0.877407 0.877407 -0.978868
v 0.892051 0.877407 -0.985355
v 0.862762 0.862762 -0.950000
v 0.827407 -0.877407 -0.950000
v 0.877407 -0.827407 -0.950000
v 0.927407 -0.927407 -1.000000
v 0.862762 -0.862762 -0.950000
v 0.877407 -0.877407 -0.978868
v 0.892051 -0.877407 -0.985355
v 0.877407 -0.892051 -0.985355
v 0.877407 0.939258 -0.827407
v 0.827407 0.939258 -0.877407
v 0.862762 0.939258 -0.862762
v -0.827407 0.939258 -0.877407
v -0.877407 0.939258 -0.827407
v -0.862762 0.939258 -0.862762
v -0.877407 0.939258 0.827407
v -0.827407 0.939258 0.877407
v -0.862762 0.939258 0.862762
v 0.827407 0.939258 0.877407
v 0.877407 0.939258 0.827407
v 0.862762 0.939258 0.862762
v 0.827407 -0.877407 0.939258
v 0.877407 -0.827407 0.939258
v 0.862762 -0.862762 0.939258
v 0.877407 0.827407 0.939258
v 0.827407 0.877407 0.939258
v 0.862762 0.862762 0.939258
v -0.827407 0.877407 0.939258
v -0.877407 0.827407 0.939258
v -0.862762 0.862762 0.939258
v -0.877407 -0.827407 0.939258
v -0.827407 -0.877407 0.939258
v -0.862762 -0.862762 0.939258
v -0.939258 -0.877407 0.827407
v -0.939258 -0.827407 0.877407
v -0.939258 -0.862762 0.862762
v -0.939258 0.827407 0.877407
v -0.939258 0.877407 0.827407
v -0.939258 0.862762 0.862762
v -0.939258 0.877407 -0.827407
v -0.939258 0.827407 -0.877407
v -0.939258 0.862762 -0.862762
v -0.939258 -0.827407 -0.877407
v -0.939258 -0.877407 -0.827407
v -0.939258 -0.862762 -0.862762
v -0.877407 -0.939258 -0.827407
v -0.827407 -0.939258 -0.877407
v -0.862762 -0.939258 -0.862762
v 0.827407 -0.939258 -0.877407
v 0.877407 -0.939258 -0.827407
v 0.862762 -0.939258 -0.862762
v 0.877407 -0.939258 0.827407
v 0.827407 -0.939258 0.877407
v 0.862762 -0.939258 0.862762
v -0.827407 -0.939258 0.877407
v -0.877407 -0.939258 0.827407
v -0.862762 -0.939258 0.862762
v 0.939258 -0.877407 -0.827407
v 0.939258 -0.827407 -0.877407
v 0.939258 -0.862762 -0.862762
v 0.939258 0.827407 -0.877407
v 0.939258 0.877407 -0.827407
v 0.939258 0.862762 -0.862762
v 0.939258 0.877407 0.827407
v 0.939258 0.827407 0.877407
v 0.939258 0.862762 0.862762
v 0.939258 -0.827407 0.877407
v 0.939258 -0.877407 0.827407
v 0.939258 -0.862762 0.862762
v -0.827407 -0.877407 -0.939258
v -0.877407 -0.827407 -0.939258
v -0.862762 -0.862762 -0.939258
v -0.877407 0.827407 -0.939258
v -0.827407 0.877407 -0.939258
v -0.862762 0.862762 -0.939258
v 0.827407 0.877407 -0.939258
v 0.877407 0.827407 -0.939258
v 0.862762 0.862762 -0.939258
v 0.877407 -0.827407 -0.939258
v 0.827407 -0.877407 -0.939258
v 0.862762 -0.862762 -0.939258
vn -0.0000 1.0000 -0.0000
vn -0.0000 -0.0000 1.0000
vn -1.0000 -0.0000 -0.0000
vn -0.0000 -1.0000 -0.0000
vn 1.0000 -0.0000 -0.0000
vn -0.0000 -0.0000 -1.0000
vn -0.0000 0.7071 -0.7071
vn 0.5773 0.5774 -0.5774
vn 0.7071 -0.0000 -0.7071
vn 0.7071 0.7071 -0.0000
vn 0.5774 0.5774 -0.5773
vn 0.5774 0.5773 -0.5774
vn 0.5774 -0.5773 -0.5774
vn -0.0000 -0.7071 -0.7071
vn 0.7071 -0.7071 -0.0000
vn 0.5774 -0.5774 -0.5773
vn 0.5773 -0.5774 -0.5774
vn 0.5774 0.5774 0.5773
vn 0.7071 -0.0000 0.7071
vn -0.0000 0.7071 0.7071
vn 0.5773 0.5774 0.5774
vn 0.5774 0.5773 0.5774
vn -0.0000 -0.7071 0.7071
vn 0.5773 -0.5774 0.5774
vn 0.5774 -0.5774 0.5773
vn 0.5774 -0.5773 0.5774
vn -0.7071 0.7071 -0.0000
vn -0.5774 0.5774 -0.5773
vn -0.7071 -0.0000 -0.7071
vn -0.5773 0.5774 -0.5774
vn -0.5774 0.5773 -0.5774
vn -0.5774 -0.5773 -0.5774
vn -0.7071 -0.7071 -0.0000
vn -0.5773 -0.5774 -0.5774
vn -0.5774 -0.5774 -0.5773
vn -0.5773 0.5774 0.5774
vn -0.7071 -0.0000 0.7071
vn -0.5774 0.5774 0.5773
vn -0.5774 0.5773 0.5774
vn -0.5773 -0.5774 0.5774
vn -0.5774 -0.5773 0.5774
vn -0.5774 -0.5774 0.5773
vn 0.0001 -0.0000 1.0000
vn -0.7071 -0.0001 0.7071
vn -0.4524 0.7685 0.4524
vn -0.7071 -0.0000 0.7072
vn -0.4524 0.7686 0.4524
vn 0.4524 0.7685 0.4524
vn 0.7072 -0.0000 0.7071
vn 0.4524 0.7686 0.4524
vn 1.0000 -0.0000 -0.0001
vn 0.7071 -0.0001 0.7071
vn 0.4524 0.7685 -0.4524
vn 0.7071 -0.0000 -0.7072
vn 0.4524 0.7686 -0.4524
vn -0.0001 -0.0000 -1.0000
vn 0.7071 -0.0001 -0.7071
vn -1.0000 -0.0000 0.0001
vn -0.7071 -0.0001 -0.7071
vn -0.4524 0.7685 -0.4524
vn -0.7072 -0.0000 -0.7071
vn -0.4524 0.7686 -0.4524
vn -1.0000 -0.0001 -0.0000
vn -0.7071 0.7071 -0.0001
vn -0.4524 0.4524 0.7685
vn -0.7072 0.7071 -0.0000
vn -0.4524 0.4524 0.7686
vn -0.4524 -0.4524 0.7685
vn -0.7071 -0.7072 -0.0000
vn -0.4524 -0.4524 0.7686
vn 0.0001 -1.0000 -0.0000
vn -0.7071 -0.7071 -0.0001
vn 0.4524 -0.4524 0.7685
vn 0.7072 -0.7071 -0.0000
vn 0.4524 -0.4524 0.7686
vn 0.7071 -0.7071 -0.0001
vn -0.0001 1.0000 -0.0000
vn 0.7071 0.7071 -0.0001
vn 0.4524 0.4524 0.7685
vn 0.7071 0.7072 -0.0000
vn 0.4524 0.4524 0.7686
vn -0.0000 -0.0001 -1.0000
vn 0.0001 0.7071 -0.7071
vn -0.7685 0.4524 -0.4524
vn -0.0000 0.7071 -0.7072
vn -0.7686 0.4524 -0.4524
vn -0.7685 -0.4524 -0.4524
vn -0.0000 -0.7072 -0.7071
vn -0.7686 -0.4524 -0.4524
vn 0.0001 -0.7071 -0.7071
vn -0.7685 -0.4524 0.4524
vn -0.0000 -0.7071 0.7072
vn -0.7686 -0.4524 0.4524
vn 0.0001 -0.7071 0.7071
vn -0.0000 1.0000 -0.0001
vn 0.0001 0.7071 0.7071
vn -0.7685 0.4524 0.4524
vn -0.0000 0.7072 0.7071
vn -0.7686 0.4524 0.4524
vn -0.0001 -0.0000 1.0000
vn 0.7071 0.0001 0.7071
vn 0.4524 -0.7685 0.4524
vn 0.7071 -0.0000 0.7072
vn 0.4524 -0.7686 0.4524
vn -0.4524 -0.7685 0.4524
vn -0.7072 -0.0000 0.7071
vn -0.4524 -0.7686 0.4524
vn -1.0000 -0.0000 -0.0001
vn -0.7071 0.0001 0.7071
vn -0.4524 -0.7685 -0.4524
vn -0.7071 -0.0000 -0.7072
vn -0.4524 -0.7686 -0.4524
vn 0.0001 -0.0000 -1.0000
vn -0.7071 0.0001 -0.7071
vn 1.0000 -0.0000 0.0001
vn 0.7071 0.0001 -0.7071
vn 0.4524 -0.7685 -0.4524
vn 0.7072 -0.0000 -0.7071
vn 0.4524 -0.7686 -0.4524
vn -0.0000 -0.0001 1.0000
vn -0.0001 0.7071 0.7071
vn 0.7685 0.4524 0.4524
vn -0.0000 0.7071 0.7072
vn 0.7686 0.4524 0.4524
vn 0.7685 -0.4524 0.4524
vn -0.0000 -0.7072 0.7071
vn 0.7686 -0.4524 0.4524
vn -0.0000 -1.0000 -0.0001
vn -0.0001 -0.7071 0.7071
vn 0.7685 -0.4524 -0.4524
vn -0.0000 -0.7071 -0.7072
vn 0.7686 -0.4524 -0.4524
vn -0.0001 -0.7071 -0.7071
vn -0.0000 1.0000 0.0001
vn -0.0001 0.7071 -0.7071
vn 0.7685 0.4524 -0.4524
vn -0.0000 0.7072 -0.7071
vn 0.7686 0.4524 -0.4524
vn 1.0000 -0.0001 -0.0000
vn 0.7071 0.7071 0.0001
vn 0.4524 0.4524 -0.7685
vn 0.7072 0.7071 -0.0000
vn 0.4524 0.4524 -0.7686
vn 0.4524 -0.4524 -0.7685
vn 0.7071 -0.7072 -0.0000
vn 0.4524 -0.4524 -0.7686
vn -0.0001 -1.0000 -0.0000
vn 0.7071 -0.7071 0.0001
vn -0.4524 -0.4524 -0.7685
vn -0.7072 -0.7071 -0.0000
vn -0.4524 -0.4524 -0.7686
vn -0.7071 -0.7071 0.0001
vn 0.0001 1.0000 -0.0000
vn -0.7071 0.7071 0.0001
vn -0.4524 0.4524 -0.7685
vn -0.7071 0.7072 -0.0000
vn -0.4524 0.4524 -0.7686
vt 0.640324 0.515324
vt 0.859676 0.515324
vt 0.859676 0.734676
vt 0.640324 0.734676
vt 0.390324 0.765324
vt 0.609676 0.765324
vt 0.609676 0.984676
vt 0.390324 0.984676
vt 0.390324 0.015324
vt 0.609676 0.015324
vt 0.609676 0.234676
vt 0.390324 0.234676
vt 0.140324 0.515324
vt 0.359676 0.515324
vt 0.359676 0.734676
vt 0.140324 0.734676
vt 0.390324 0.515324
vt 0.609676 0.515324
vt 0.609676 0.734676
vt 0.390324 0.734676
vt 0.390324 0.265324
vt 0.609676 0.265324
vt 0.609676 0.484676
vt 0.390324 0.484676
vt 0.618750 0.493750
vt 0.628125 0.496875
vt 0.624119 0.500000
vt 0.618750 0.500000
vt 0.631250 0.506250
vt 0.625000 0.506250
vt 0.618750 0.506250
vt 0.381250 0.493750
vt 0.381250 0.500000
vt 0.375000 0.500880
vt 0.371875 0.496875
vt 0.381250 0.506250
vt 0.375000 0.506250
vt 0.368750 0.506250
vt 0.618750 0.743750
vt 0.625000 0.743750
vt 0.625000 0.749120
vt 0.618750 0.750000
vt 0.631250 0.743750
vt 0.628125 0.753125
vt 0.618750 0.756250
vt 0.381250 0.756250
vt 0.371875 0.753125
vt 0.375881 0.750000
vt 0.381250 0.750000
vt 0.368750 0.743750
vt 0.375000 0.743750
vt 0.381250 0.743750
vt 0.618750 0.243750
vt 0.625000 0.243750
vt 0.623679 0.248679
vt 0.618750 0.250000
vt 0.868750 0.506250
vt 0.868750 0.500000
vt 0.872358 0.500000
vt 0.875000 0.506250
vt 0.618750 0.256250
vt 0.625000 0.256250
vt 0.381250 0.243750
vt 0.381250 0.250000
vt 0.376321 0.251321
vt 0.375000 0.243750
vt 0.381250 0.256250
vt 0.375000 0.256250
vt 0.131250 0.506250
vt 0.125000 0.506250
vt 0.125000 0.502642
vt 0.131250 0.500000
vt 0.618750 0.993750
vt 0.625000 0.993750
vt 0.625000 0.997358
vt 0.618750 1.000000
vt 0.868750 0.743750
vt 0.875000 0.743750
vt 0.875000 0.747358
vt 0.868750 0.750000
vt 0.618750 0.006250
vt 0.618750 0.000000
vt 0.622358 0.000000
vt 0.625000 0.006250
vt 0.131250 0.743750
vt 0.131250 0.750000
vt 0.127641 0.750000
vt 0.125000 0.743750
vt 0.381250 0.993750
vt 0.381250 1.000000
vt 0.377641 1.000000
vt 0.375000 0.993750
vt 0.381250 0.006250
vt 0.375000 0.006250
vt 0.375000 0.002641
vt 0.381250 -0.000000
vt 0.646574 0.515324
vt 0.640324 0.515324
vt 0.640324 0.515324
vt 0.640324 0.521574
vt 0.640324 0.515324
vt 0.634074 0.509074
vt 0.853426 0.515324
vt 0.865926 0.509074
vt 0.859676 0.515324
vt 0.859676 0.521574
vt 0.859676 0.728426
vt 0.859676 0.734676
vt 0.859676 0.734676
vt 0.865926 0.740926
vt 0.853426 0.734676
vt 0.640324 0.728426
vt 0.640324 0.734676
vt 0.646574 0.734676
vt 0.640324 0.734676
vt 0.634074 0.740926
vt 0.396574 0.765324
vt 0.390324 0.765324
vt 0.390324 0.765324
vt 0.390324 0.771574
vt 0.384074 0.759074
vt 0.603426 0.765324
vt 0.609676 0.765324
vt 0.615926 0.759074
vt 0.609676 0.771574
vt 0.609676 0.978426
vt 0.609676 0.984676
vt 0.609676 0.984676
vt 0.609676 0.984676
vt 0.615926 0.990926
vt 0.609676 0.984676
vt 0.603426 0.984676
vt 0.390324 0.978426
vt 0.390324 0.984676
vt 0.396574 0.984676
vt 0.384074 0.990926
vt 0.396574 0.015324
vt 0.390324 0.015324
vt 0.390324 0.015324
vt 0.390324 0.021574
vt 0.390324 0.015324
vt 0.384074 0.009074
vt 0.603426 0.015324
vt 0.609676 0.015324
vt 0.609676 0.015324
vt 0.615926 0.009074
vt 0.609676 0.021574
vt 0.609676 0.228426
vt 0.609676 0.234676
vt 0.609676 0.234676
vt 0.609676 0.234676
vt 0.615926 0.240926
vt 0.603426 0.234676
vt 0.390324 0.228426
vt 0.390324 0.234676
vt 0.396574 0.234676
vt 0.390324 0.234676
vt 0.384074 0.240926
vt 0.146574 0.515324
vt 0.140324 0.515324
vt 0.140324 0.515324
vt 0.140324 0.521574
vt 0.134074 0.509074
vt 0.353426 0.515324
vt 0.365926 0.509074
vt 0.359676 0.515324
vt 0.359676 0.521574
vt 0.359676 0.728426
vt 0.359676 0.734676
vt 0.359676 0.734676
vt 0.365926 0.740926
vt 0.359676 0.734676
vt 0.353426 0.734676
vt 0.140324 0.728426
vt 0.146574 0.734676
vt 0.140324 0.734676
vt 0.134074 0.740926
vt 0.396574 0.515324
vt 0.390324 0.515324
vt 0.390324 0.515324
vt 0.390324 0.521574
vt 0.384074 0.509074
vt 0.603426 0.515324
vt 0.615926 0.509074
vt 0.609676 0.515324
vt 0.609676 0.521574
vt 0.609676 0.728426
vt 0.609676 0.734676
vt 0.609676 0.734676
vt 0.609676 0.734676
vt 0.615926 0.740926
vt 0.609676 0.734676
vt 0.603426 0.734676
vt 0.390324 0.728426
vt 0.390324 0.734676
vt 0.396574 0.734676
vt 0.390324 0.734676
vt 0.384074 0.740926
vt 0.396574 0.265324
vt 0.390324 0.265324
vt 0.390324 0.271574
vt 0.384074 0.259074
vt 0.603426 0.265324
vt 0.609676 0.265324
vt 0.609676 0.265324
vt 0.615926 0.259074
vt 0.609676 0.271574
vt 0.609676 0.478426
vt 0.609676 0.484676
vt 0.609676 0.484676
vt 0.615926 0.490926
vt 0.603426 0.484676
vt 0.390324 0.478426
vt 0.390324 0.484676
vt 0.390324 0.484676
vt 0.390324 0.484676
vt 0.396574 0.484676
vt 0.384074 0.490926
vt 0.390324 0.771574
vt 0.396574 0.984676
vt 0.390324 0.978426
vt 0.359676 0.521574
vt 0.359676 0.515324
vt 0.353426 0.515324
vt 0.140324 0.521574
vt 0.146574 0.515324
vt 0.853426 0.734676
vt 0.859676 0.734676
vt 0.859676 0.728426
vt 0.853426 0.515324
vt 0.859676 0.521574
vt 0.396574 0.015324
vt 0.390324 0.015324
vt 0.390324 0.021574
vt 0.396574 0.234676
vt 0.390324 0.228426
vt 0.609676 0.521574
vt 0.603426 0.515324
vt 0.390324 0.521574
vt 0.396574 0.515324
vt 0.603426 0.984676
vt 0.609676 0.978426
vt 0.609676 0.771574
vt 0.146574 0.734676
vt 0.609676 0.271574
vt 0.390324 0.271574
vt 0.390324 0.265324
vt 0.396574 0.265324
vt 0.603426 0.234676
vt 0.609676 0.228426
vt 0.603426 0.015324
vt 0.609676 0.015324
vt 0.609676 0.021574
vt 0.396574 0.734676
vt 0.390324 0.728426
vt 0.353426 0.734676
vt 0.359676 0.734676
vt 0.359676 0.728426
vt 0.396574 0.484676
vt 0.609676 0.728426
vt 0.609676 0.484676
vt 0.609676 0.478426
vt 0.640324 0.521574
vt 0.646574 0.515324
s 0
usemtl Mat.Edge
f 25/25/6 28/26/7 29/27/8 31/28/9
f 26/29/1 30/30/10 29/27/11 28/26/7
f 27/31/5 31/28/9 29/27/12 30/30/10
f 32/32/6 35/33/9 36/34/13 38/35/14
f 33/36/5 37/37/15 36/34/16 35/33/9
f 34/38/4 38/35/14 36/34/17 37/37/15
f 39/39/5 42/40/10 43/41/18 45/42/19
f 40/43/1 44/44/20 43/41/21 42/40/10
f 41/45/2 45/42/19 43/41/22 44/44/20
f 46/46/2 49/47/23 50/48/24 52/49/19
f 47/50/4 51/51/15 50/48/25 49/47/23
f 48/52/5 52/49/19 50/48/26 51/51/15
f 53/53/3 56/54/27 57/55/28 59/56/29
f 54/57/1 58/58/7 57/59/30 56/60/27
f 55/61/6 59/56/29 57/55/31 58/62/7
f 60/63/3 63/64/29 64/65/32 66/66/33
f 61/67/6 65/68/14 64/65/34 63/64/29
f 62/69/4 66/70/33 64/71/35 65/72/14
f 67/73/2 70/74/20 71/75/36 73/76/37
f 68/77/1 72/78/27 71/79/38 70/80/20
f 69/81/3 73/82/37 71/83/39 72/84/27
f 74/85/4 77/86/23 78/87/40 80/88/33
f 75/89/2 79/90/37 78/91/41 77/92/23
f 76/93/3 80/94/33 78/95/42 79/96/37
f 81/97/43 84/98/44 85/99/45 87/99/20
f 82/100/3 86/101/27 85/99/45 84/98/46
f 83/102/1 87/99/20 85/99/47 86/101/27
f 88/103/2 91/2/20 92/2/48 94/2/49
f 89/104/1 93/105/10 92/2/50 91/2/20
f 90/106/51 94/2/52 92/2/48 93/105/10
f 95/107/5 98/108/10 99/3/53 101/109/54
f 96/110/1 100/3/7 99/3/55 98/108/10
f 97/111/56 101/109/57 99/3/53 100/3/7
f 102/112/58 105/113/59 106/4/60 108/4/27
f 103/114/6 107/115/7 106/4/60 105/113/61
f 104/116/1 108/4/27 106/4/62 107/115/7
f 109/117/63 112/118/64 113/119/65 115/5/37
f 110/120/1 114/5/20 113/119/65 112/118/66
f 111/121/2 115/5/37 113/119/67 114/5/20
f 116/122/3 119/123/37 120/123/68 122/123/69
f 117/124/2 121/6/23 120/123/70 119/123/37
f 118/125/71 122/123/72 120/123/68 121/6/23
f 123/126/4 126/127/23 127/128/73 129/129/74
f 124/130/2 128/131/19 127/128/75 126/127/23
f 125/132/51 129/129/76 127/128/73 128/131/19
f 130/133/77 133/134/78 134/134/79 136/8/20
f 131/135/5 135/8/19 134/134/79 133/134/80
f 132/136/2 136/8/20 134/134/81 135/8/19
f 137/137/82 140/138/83 141/139/84 143/138/29
f 138/140/1 142/141/27 141/139/84 140/138/85
f 139/142/3 143/138/29 141/139/86 142/141/27
f 144/143/6 147/144/29 148/145/87 150/10/88
f 145/146/3 149/10/33 148/145/89 147/144/29
f 146/147/71 150/10/90 148/145/87 149/10/33
f 151/148/4 154/149/33 155/150/91 157/151/92
f 152/152/3 156/11/37 155/150/93 154/149/33
f 153/153/43 157/151/94 155/150/91 156/11/37
f 158/154/95 161/155/96 162/12/97 164/12/27
f 159/156/2 163/157/37 162/12/97 161/155/98
f 160/158/3 164/12/27 162/12/99 163/157/37
f 165/159/100 168/160/101 169/13/102 171/161/23
f 166/162/5 170/13/15 169/13/102 168/160/103
f 167/163/4 171/161/23 169/13/104 170/13/15
f 172/164/2 175/14/23 176/14/105 178/14/106
f 173/165/4 177/166/33 176/14/107 175/14/23
f 174/167/108 178/14/109 176/14/105 177/166/33
f 179/168/3 182/15/33 183/169/110 185/170/111
f 180/171/4 184/172/14 183/169/112 182/15/33
f 181/173/113 185/170/114 183/169/110 184/172/14
f 186/174/115 189/16/116 190/16/117 192/16/15
f 187/175/6 191/176/14 190/16/117 189/16/118
f 188/177/4 192/16/15 190/16/119 191/176/14
f 193/178/120 196/17/121 197/179/122 199/180/19
f 194/181/1 198/17/10 197/179/122 196/17/123
f 195/182/5 199/180/19 197/179/124 198/17/10
f 200/183/2 203/18/19 204/18/125 206/18/126
f 201/184/5 205/185/15 204/18/127 203/18/19
f 202/186/128 206/18/129 204/18/125 205/185/15
f 207/187/4 210/188/15 211/189/130 213/190/131
f 208/191/5 212/192/9 211/189/132 210/188/15
f 209/193/56 213/190/133 211/189/130 212/192/9
f 214/194/134 217/195/135 218/20/136 220/20/10
f 215/196/6 219/197/9 218/20/136 217/195/137
f 216/198/5 220/20/10 218/20/138 219/197/9
f 221/199/139 224/21/140 225/200/141 227/21/9
f 222/201/1 226/21/7 225/200/141 224/21/142
f 223/202/6 227/21/9 225/200/143 226/21/7
f 228/203/5 231/204/9 232/204/144 234/205/145
f 229/206/6 233/22/14 232/204/146 231/204/9
f 230/207/147 234/205/148 232/204/144 233/22/14
f 235/208/4 238/23/14 239/209/149 241/210/150
f 236/211/6 240/23/29 239/209/151 238/23/14
f 237/212/58 241/210/152 239/209/149 240/23/29
f 242/213/153 245/214/154 246/215/155 248/216/7
f 243/217/3 247/215/29 246/215/155 245/214/156
f 244/218/6 248/216/7 246/215/157 247/215/29
f 62/69/4 74/85/4 80/88/33 66/70/33
f 66/66/33 80/94/33 76/93/3 60/63/3
f 34/38/4 62/69/4 65/72/14 38/35/14
f 38/35/14 65/68/14 61/67/6 32/32/6
f 27/31/5 33/36/5 35/33/9 31/28/9
f 31/28/9 35/33/9 32/32/6 25/25/6
f 75/89/2 67/73/2 73/76/37 79/90/37
f 79/96/37 73/82/37 69/81/3 76/93/3
f 41/45/2 46/46/2 52/49/19 45/42/19
f 45/42/19 52/49/19 48/52/5 39/39/5
f 55/61/6 61/67/6 63/64/29 59/56/29
f 59/56/29 63/64/29 60/63/3 53/53/3
f 40/43/1 68/77/1 70/80/20 44/44/20
f 44/44/20 70/74/20 67/73/2 41/45/2
f 26/29/1 40/43/1 42/40/10 30/30/10
f 30/30/10 42/40/10 39/39/5 27/31/5
f 74/85/4 47/50/4 49/47/23 77/86/23
f 77/92/23 49/47/23 46/46/2 75/89/2
f 68/77/1 54/57/1 56/60/27 72/78/27
f 72/84/27 56/54/27 53/53/3 69/81/3
f 54/57/1 26/29/1 28/26/7 58/58/7
f 58/62/7 28/26/7 25/25/6 55/61/6
f 47/50/4 34/38/4 37/37/15 51/51/15
f 51/51/15 37/37/15 33/36/5 48/52/5
f 88/103/2 81/97/2 87/99/20 91/2/20
f 91/2/20 87/99/20 83/102/1 89/104/1
f 82/100/3 102/112/3 108/4/27 86/101/27
f 86/101/27 108/4/27 104/116/1 83/102/1
f 95/107/5 90/106/5 93/105/10 98/108/10
f 98/108/10 93/105/10 89/104/1 96/110/1
f 103/114/6 97/111/6 100/3/7 107/115/7
f 107/115/7 100/3/7 96/110/1 104/116/1
f 116/122/3 109/117/3 115/5/37 119/123/37
f 119/123/37 115/5/37 111/121/2 117/124/2
f 132/136/2 111/121/2 114/5/20 136/8/20
f 136/8/20 114/5/20 110/120/1 130/133/1
f 117/124/2 124/130/2 126/127/23 121/6/23
f 121/6/23 126/127/23 123/126/4 118/125/4
f 131/135/5 125/132/5 128/131/19 135/8/19
f 135/8/19 128/131/19 124/130/2 132/136/2
f 139/142/3 145/146/3 147/144/29 143/138/29
f 143/138/29 147/144/29 144/143/6 137/137/6
f 160/158/3 139/142/3 142/141/27 164/12/27
f 164/12/27 142/141/27 138/140/1 158/154/1
f 145/146/3 152/152/3 154/149/33 149/10/33
f 149/10/33 154/149/33 151/148/4 146/147/4
f 152/152/3 160/158/3 163/157/37 156/11/37
f 156/11/37 163/157/37 159/156/2 153/153/2
f 172/164/2 165/159/2 171/161/23 175/14/23
f 175/14/23 171/161/23 167/163/4 173/165/4
f 166/162/5 186/174/5 192/16/15 170/13/15
f 170/13/15 192/16/15 188/177/4 167/163/4
f 179/168/3 174/167/3 177/166/33 182/15/33
f 182/15/33 177/166/33 173/165/4 180/171/4
f 187/175/6 181/173/6 184/172/14 191/176/14
f 191/176/14 184/172/14 180/171/4 188/177/4
f 200/183/2 193/178/2 199/180/19 203/18/19
f 203/18/19 199/180/19 195/182/5 201/184/5
f 216/198/5 195/182/5 198/17/10 220/20/10
f 220/20/10 198/17/10 194/181/1 214/194/1
f 201/184/5 208/191/5 210/188/15 205/185/15
f 205/185/15 210/188/15 207/187/4 202/186/4
f 208/191/5 216/198/5 219/197/9 212/192/9
f 212/192/9 219/197/9 215/196/6 209/193/6
f 228/203/5 221/199/5 227/21/9 231/204/9
f 231/204/9 227/21/9 223/202/6 229/206/6
f 244/218/6 223/202/6 226/21/7 248/216/7
f 248/216/7 226/21/7 222/201/1 242/213/1
f 229/206/6 236/211/6 238/23/14 233/22/14
f 233/22/14 238/23/14 235/208/4 230/207/4
f 236/211/6 244/218/6 247/215/29 240/23/29
f 240/23/29 247/215/29 243/217/3 237/212/3
f 109/117/3 262/117/3 263/118/27 112/118/27
f 112/118/27 263/118/27 261/219/1 110/120/1
f 270/220/5 131/135/5 133/134/10 272/134/10
f 272/134/10 133/134/10 130/133/1 271/221/1
f 174/167/3 289/222/3 290/223/37 178/14/37
f 178/14/37 290/223/37 288/224/2 172/164/2
f 285/225/5 166/162/5 168/160/19 287/13/19
f 287/13/19 168/160/19 165/159/2 286/226/2
f 97/111/6 256/227/6 257/228/9 101/109/9
f 101/109/9 257/228/9 255/229/5 95/107/5
f 252/230/2 88/103/2 94/2/19 254/2/19
f 254/2/19 94/2/19 90/106/5 253/231/5
f 137/137/6 274/232/6 275/233/7 140/138/7
f 140/138/7 275/233/7 273/234/1 138/140/1
f 282/235/2 159/156/2 161/155/20 284/12/20
f 284/12/20 161/155/20 158/154/1 283/236/1
f 202/186/4 301/237/4 302/185/23 206/18/23
f 206/18/23 302/185/23 300/238/2 200/183/2
f 297/239/1 194/181/1 196/17/20 299/17/20
f 299/17/20 196/17/20 193/178/2 298/240/2
f 125/132/5 268/241/5 269/128/15 129/129/15
f 129/129/15 269/128/15 267/242/4 123/126/4
f 264/122/3 116/122/3 122/123/33 266/123/33
f 266/123/33 122/123/33 118/125/4 265/243/4
f 294/244/6 187/175/6 189/16/9 296/16/9
f 296/16/9 189/16/9 186/174/5 295/174/5
f 230/207/4 313/245/4 314/204/15 234/205/15
f 234/205/15 314/204/15 312/203/5 228/203/5
f 309/246/1 222/201/1 224/21/10 311/247/10
f 311/247/10 224/21/10 221/199/5 310/248/5
f 102/112/3 259/112/3 260/4/29 105/113/29
f 105/113/29 260/4/29 258/114/6 103/114/6
f 153/153/2 280/249/2 281/149/23 157/151/23
f 157/151/23 281/149/23 279/250/4 151/148/4
f 276/251/6 144/143/6 150/10/14 278/252/14
f 278/252/14 150/10/14 146/147/4 277/253/4
f 306/254/6 215/196/6 217/195/7 308/20/7
f 308/20/7 217/195/7 214/194/1 307/255/1
f 181/173/6 292/256/6 293/257/29 185/170/29
f 185/170/29 293/257/29 291/258/3 179/168/3
f 318/259/3 243/217/3 245/214/27 320/24/27
f 320/24/27 245/214/27 242/213/1 319/213/1
f 209/193/6 304/193/6 305/188/14 213/190/14
f 213/190/14 305/188/14 303/260/4 207/187/4
f 237/212/3 316/212/3 317/261/33 241/210/33
f 241/210/33 317/261/33 315/262/4 235/208/4
f 249/263/3 82/100/3 84/98/37 251/99/37
f 251/99/37 84/98/37 81/97/2 250/264/2
f 25/25/6 32/32/6 244/218/6 236/211/6
f 27/31/5 39/39/5 208/191/5 201/184/5
f 26/29/1 54/57/1 89/104/1 83/102/1
f 40/43/1 26/29/1 83/102/1 104/116/1
f 33/36/5 27/31/5 201/184/5 195/182/5
f 55/61/6 25/25/6 236/211/6 229/206/6
f 32/32/6 61/67/6 223/202/6 244/218/6
f 34/38/4 47/50/4 180/171/4 173/165/4
f 62/69/4 34/38/4 173/165/4 167/163/4
f 48/52/5 33/36/5 195/182/5 216/198/5
f 39/39/5 48/52/5 216/198/5 208/191/5
f 41/45/2 67/73/2 124/130/2 117/124/2
f 68/77/1 40/43/1 104/116/1 96/110/1
f 46/46/2 41/45/2 117/124/2 111/121/2
f 47/50/4 74/85/4 188/177/4 180/171/4
f 75/89/2 46/46/2 111/121/2 132/136/2
f 61/67/6 55/61/6 229/206/6 223/202/6
f 53/53/3 60/63/3 160/158/3 152/152/3
f 54/57/1 68/77/1 96/110/1 89/104/1
f 69/81/3 53/53/3 152/152/3 145/146/3
f 74/85/4 62/69/4 167/163/4 188/177/4
f 60/63/3 76/93/3 139/142/3 160/158/3
f 76/93/3 69/81/3 145/146/3 139/142/3
f 67/73/2 75/89/2 132/136/2 124/130/2
f 81/97/2 88/103/2 252/230/2 250/264/2
f 102/112/3 82/100/3 249/263/3 259/112/3
f 90/106/5 95/107/5 255/229/5 253/231/5
f 97/111/6 103/114/6 258/114/6 256/227/6
f 109/117/3 116/122/3 264/122/3 262/117/3
f 130/133/1 110/120/1 261/219/1 271/221/1
f 118/125/4 123/126/4 267/242/4 265/243/4
f 125/132/5 131/135/5 270/220/5 268/241/5
f 137/137/6 144/143/6 276/251/6 274/232/6
f 158/154/1 138/140/1 273/234/1 283/236/1
f 146/147/4 151/148/4 279/250/4 277/253/4
f 153/153/2 159/156/2 282/235/2 280/249/2
f 186/174/5 166/162/5 285/225/5 295/174/5
f 165/159/2 172/164/2 288/224/2 286/226/2
f 174/167/3 179/168/3 291/258/3 289/222/3
f 181/173/6 187/175/6 294/244/6 292/256/6
f 214/194/1 194/181/1 297/239/1 307/255/1
f 193/178/2 200/183/2 300/238/2 298/240/2
f 202/186/4 207/187/4 303/260/4 301/237/4
f 209/193/6 215/196/6 306/254/6 304/193/6
f 221/199/5 228/203/5 312/203/5 310/248/5
f 242/213/1 222/201/1 309/246/1 319/213/1
f 230/207/4 235/208/4 315/262/4 313/245/4
f 237/212/3 243/217/3 318/259/3 316/212/3
usemtl Mat.Letter
f 1/1/1 2/2/1 3/3/1 4/4/1
f 5/5/2 6/6/2 7/7/2 8/8/2
f 9/9/3 10/10/3 11/11/3 12/12/3
f 13/13/4 14/14/4 15/15/4 16/16/4
f 17/17/5 18/18/5 19/19/5 20/20/5
f 21/21/6 22/22/6 23/23/6 24/24/6
